<svg width="1097" height="723" viewBox="0 0 1097 723" fill="none" xmlns="http://www.w3.org/2000/svg">
<rect width="1097" height="723" fill="#1E1E1E"/>
<rect width="1097" height="723" rx="30" fill="url(#paint0_linear_0_1)"/>
<rect x="709.92" y="419.332" width="100" height="100" rx="25" transform="rotate(-15.9096 709.92 419.332)" fill="#D9D9D9" fill-opacity="0.5"/>
<rect width="150" height="150" rx="25" transform="matrix(0.964833 0.262863 0.262863 -0.964833 276.375 350.798)" fill="#D9D9D9" fill-opacity="0.5"/>
<rect x="349" y="161" width="400" height="400" rx="25" fill="#FFFFF4" fill-opacity="0.266667"/>
<path d="M397.984 236.562L402.75 227.156H407.969L400.391 241.109V250H395.578V241.266L388 227.156H393.25L397.984 236.562ZM417.625 232.172C419.969 232.172 421.766 232.682 423.016 233.703C424.266 234.724 424.891 236.276 424.891 238.359V250H421.562L420.641 247.625H420.516C420.016 248.25 419.505 248.76 418.984 249.156C418.464 249.552 417.865 249.844 417.188 250.031C416.51 250.219 415.688 250.312 414.719 250.312C413.688 250.312 412.76 250.115 411.938 249.719C411.125 249.323 410.484 248.719 410.016 247.906C409.547 247.083 409.312 246.042 409.312 244.781C409.312 242.927 409.964 241.562 411.266 240.688C412.568 239.802 414.521 239.312 417.125 239.219L420.156 239.125V238.359C420.156 237.443 419.917 236.771 419.438 236.344C418.958 235.917 418.292 235.703 417.438 235.703C416.594 235.703 415.766 235.823 414.953 236.062C414.141 236.302 413.328 236.604 412.516 236.969L410.938 233.75C411.865 233.26 412.901 232.875 414.047 232.594C415.203 232.312 416.396 232.172 417.625 232.172ZM420.156 241.906L418.312 241.969C416.771 242.01 415.698 242.286 415.094 242.797C414.5 243.307 414.203 243.979 414.203 244.812C414.203 245.542 414.417 246.062 414.844 246.375C415.271 246.677 415.828 246.828 416.516 246.828C417.536 246.828 418.396 246.526 419.094 245.922C419.802 245.318 420.156 244.458 420.156 243.344V241.906ZM434.578 250H429.812V225.688H434.578V250ZM445.125 250.312C443.177 250.312 441.589 249.552 440.359 248.031C439.141 246.5 438.531 244.255 438.531 241.297C438.531 238.307 439.151 236.047 440.391 234.516C441.63 232.974 443.25 232.203 445.25 232.203C446.083 232.203 446.818 232.318 447.453 232.547C448.089 232.776 448.635 233.083 449.094 233.469C449.562 233.854 449.958 234.286 450.281 234.766H450.438C450.375 234.432 450.297 233.943 450.203 233.297C450.12 232.641 450.078 231.969 450.078 231.281V225.688H454.859V250H451.203L450.281 247.734H450.078C449.776 248.214 449.396 248.651 448.938 249.047C448.49 249.432 447.953 249.74 447.328 249.969C446.703 250.198 445.969 250.312 445.125 250.312ZM446.797 246.516C448.099 246.516 449.016 246.13 449.547 245.359C450.089 244.578 450.375 243.406 450.406 241.844V241.328C450.406 239.63 450.146 238.333 449.625 237.438C449.104 236.531 448.135 236.078 446.719 236.078C445.667 236.078 444.844 236.531 444.25 237.438C443.656 238.344 443.359 239.651 443.359 241.359C443.359 243.068 443.656 244.354 444.25 245.219C444.854 246.083 445.703 246.516 446.797 246.516ZM467 232.172C469.344 232.172 471.141 232.682 472.391 233.703C473.641 234.724 474.266 236.276 474.266 238.359V250H470.938L470.016 247.625H469.891C469.391 248.25 468.88 248.76 468.359 249.156C467.839 249.552 467.24 249.844 466.562 250.031C465.885 250.219 465.062 250.312 464.094 250.312C463.062 250.312 462.135 250.115 461.312 249.719C460.5 249.323 459.859 248.719 459.391 247.906C458.922 247.083 458.688 246.042 458.688 244.781C458.688 242.927 459.339 241.562 460.641 240.688C461.943 239.802 463.896 239.312 466.5 239.219L469.531 239.125V238.359C469.531 237.443 469.292 236.771 468.812 236.344C468.333 235.917 467.667 235.703 466.812 235.703C465.969 235.703 465.141 235.823 464.328 236.062C463.516 236.302 462.703 236.604 461.891 236.969L460.312 233.75C461.24 233.26 462.276 232.875 463.422 232.594C464.578 232.312 465.771 232.172 467 232.172ZM469.531 241.906L467.688 241.969C466.146 242.01 465.073 242.286 464.469 242.797C463.875 243.307 463.578 243.979 463.578 244.812C463.578 245.542 463.792 246.062 464.219 246.375C464.646 246.677 465.203 246.828 465.891 246.828C466.911 246.828 467.771 246.526 468.469 245.922C469.177 245.318 469.531 244.458 469.531 243.344V241.906ZM496.547 237.172H505.609V249.016C504.411 249.411 503.167 249.729 501.875 249.969C500.583 250.198 499.12 250.312 497.484 250.312C495.214 250.312 493.286 249.865 491.703 248.969C490.12 248.073 488.917 246.75 488.094 245C487.271 243.25 486.859 241.099 486.859 238.547C486.859 236.151 487.318 234.078 488.234 232.328C489.161 230.578 490.51 229.224 492.281 228.266C494.062 227.307 496.234 226.828 498.797 226.828C500.005 226.828 501.198 226.958 502.375 227.219C503.552 227.479 504.62 227.818 505.578 228.234L503.969 232.109C503.271 231.755 502.474 231.458 501.578 231.219C500.682 230.979 499.745 230.859 498.766 230.859C497.359 230.859 496.135 231.182 495.094 231.828C494.062 232.474 493.26 233.38 492.688 234.547C492.125 235.703 491.844 237.068 491.844 238.641C491.844 240.13 492.047 241.453 492.453 242.609C492.859 243.755 493.5 244.656 494.375 245.312C495.25 245.958 496.391 246.281 497.797 246.281C498.484 246.281 499.062 246.25 499.531 246.188C500.01 246.115 500.458 246.042 500.875 245.969V241.203H496.547V237.172ZM515.453 225.688V230.641C515.453 231.505 515.422 232.328 515.359 233.109C515.307 233.891 515.266 234.443 515.234 234.766H515.484C515.859 234.161 516.302 233.672 516.812 233.297C517.333 232.922 517.906 232.646 518.531 232.469C519.156 232.292 519.828 232.203 520.547 232.203C521.807 232.203 522.906 232.427 523.844 232.875C524.781 233.312 525.51 234.005 526.031 234.953C526.552 235.891 526.812 237.109 526.812 238.609V250H522.047V239.797C522.047 238.547 521.818 237.604 521.359 236.969C520.901 236.333 520.193 236.016 519.234 236.016C518.276 236.016 517.521 236.24 516.969 236.688C516.417 237.125 516.026 237.776 515.797 238.641C515.568 239.495 515.453 240.542 515.453 241.781V250H510.688V225.688H515.453ZM538.875 232.172C541.219 232.172 543.016 232.682 544.266 233.703C545.516 234.724 546.141 236.276 546.141 238.359V250H542.812L541.891 247.625H541.766C541.266 248.25 540.755 248.76 540.234 249.156C539.714 249.552 539.115 249.844 538.438 250.031C537.76 250.219 536.938 250.312 535.969 250.312C534.938 250.312 534.01 250.115 533.188 249.719C532.375 249.323 531.734 248.719 531.266 247.906C530.797 247.083 530.562 246.042 530.562 244.781C530.562 242.927 531.214 241.562 532.516 240.688C533.818 239.802 535.771 239.312 538.375 239.219L541.406 239.125V238.359C541.406 237.443 541.167 236.771 540.688 236.344C540.208 235.917 539.542 235.703 538.688 235.703C537.844 235.703 537.016 235.823 536.203 236.062C535.391 236.302 534.578 236.604 533.766 236.969L532.188 233.75C533.115 233.26 534.151 232.875 535.297 232.594C536.453 232.312 537.646 232.172 538.875 232.172ZM541.406 241.906L539.562 241.969C538.021 242.01 536.948 242.286 536.344 242.797C535.75 243.307 535.453 243.979 535.453 244.812C535.453 245.542 535.667 246.062 536.094 246.375C536.521 246.677 537.078 246.828 537.766 246.828C538.786 246.828 539.646 246.526 540.344 245.922C541.052 245.318 541.406 244.458 541.406 243.344V241.906ZM558.266 232.203C559.88 232.203 561.271 232.516 562.438 233.141C563.604 233.755 564.505 234.651 565.141 235.828C565.776 237.005 566.094 238.443 566.094 240.141V242.453H554.828C554.88 243.797 555.281 244.854 556.031 245.625C556.792 246.385 557.844 246.766 559.188 246.766C560.302 246.766 561.323 246.651 562.25 246.422C563.177 246.193 564.13 245.849 565.109 245.391V249.078C564.245 249.505 563.339 249.818 562.391 250.016C561.453 250.214 560.312 250.312 558.969 250.312C557.219 250.312 555.667 249.99 554.312 249.344C552.969 248.698 551.911 247.714 551.141 246.391C550.38 245.068 550 243.401 550 241.391C550 239.349 550.344 237.651 551.031 236.297C551.729 234.932 552.698 233.911 553.938 233.234C555.177 232.547 556.62 232.203 558.266 232.203ZM558.297 235.594C557.37 235.594 556.599 235.891 555.984 236.484C555.38 237.078 555.031 238.01 554.938 239.281H561.625C561.615 238.573 561.484 237.943 561.234 237.391C560.995 236.839 560.63 236.401 560.141 236.078C559.661 235.755 559.047 235.594 558.297 235.594ZM590.484 232.203C592.464 232.203 593.958 232.714 594.969 233.734C595.99 234.745 596.5 236.37 596.5 238.609V250H591.719V239.797C591.719 238.547 591.505 237.604 591.078 236.969C590.651 236.333 589.99 236.016 589.094 236.016C587.833 236.016 586.938 236.469 586.406 237.375C585.875 238.271 585.609 239.557 585.609 241.234V250H580.844V239.797C580.844 238.964 580.75 238.266 580.562 237.703C580.375 237.141 580.089 236.719 579.703 236.438C579.318 236.156 578.823 236.016 578.219 236.016C577.333 236.016 576.635 236.24 576.125 236.688C575.625 237.125 575.266 237.776 575.047 238.641C574.839 239.495 574.734 240.542 574.734 241.781V250H569.969V232.531H573.609L574.25 234.766H574.516C574.87 234.161 575.312 233.672 575.844 233.297C576.385 232.922 576.979 232.646 577.625 232.469C578.271 232.292 578.927 232.203 579.594 232.203C580.875 232.203 581.958 232.411 582.844 232.828C583.74 233.245 584.427 233.891 584.906 234.766H585.328C585.849 233.87 586.583 233.219 587.531 232.812C588.49 232.406 589.474 232.203 590.484 232.203ZM606.172 232.531V250H601.406V232.531H606.172ZM603.797 225.688C604.505 225.688 605.115 225.854 605.625 226.188C606.135 226.51 606.391 227.12 606.391 228.016C606.391 228.901 606.135 229.516 605.625 229.859C605.115 230.193 604.505 230.359 603.797 230.359C603.078 230.359 602.464 230.193 601.953 229.859C601.453 229.516 601.203 228.901 601.203 228.016C601.203 227.12 601.453 226.51 601.953 226.188C602.464 225.854 603.078 225.688 603.797 225.688ZM634.766 250H617.766V246.859L628.719 231.156H618.062V227.156H634.469V230.281L623.531 246H634.766V250ZM645.188 232.172C647.531 232.172 649.328 232.682 650.578 233.703C651.828 234.724 652.453 236.276 652.453 238.359V250H649.125L648.203 247.625H648.078C647.578 248.25 647.068 248.76 646.547 249.156C646.026 249.552 645.427 249.844 644.75 250.031C644.073 250.219 643.25 250.312 642.281 250.312C641.25 250.312 640.323 250.115 639.5 249.719C638.688 249.323 638.047 248.719 637.578 247.906C637.109 247.083 636.875 246.042 636.875 244.781C636.875 242.927 637.526 241.562 638.828 240.688C640.13 239.802 642.083 239.312 644.688 239.219L647.719 239.125V238.359C647.719 237.443 647.479 236.771 647 236.344C646.521 235.917 645.854 235.703 645 235.703C644.156 235.703 643.328 235.823 642.516 236.062C641.703 236.302 640.891 236.604 640.078 236.969L638.5 233.75C639.427 233.26 640.464 232.875 641.609 232.594C642.766 232.312 643.958 232.172 645.188 232.172ZM647.719 241.906L645.875 241.969C644.333 242.01 643.26 242.286 642.656 242.797C642.062 243.307 641.766 243.979 641.766 244.812C641.766 245.542 641.979 246.062 642.406 246.375C642.833 246.677 643.391 246.828 644.078 246.828C645.099 246.828 645.958 246.526 646.656 245.922C647.365 245.318 647.719 244.458 647.719 243.344V241.906ZM662.906 250.312C660.958 250.312 659.37 249.552 658.141 248.031C656.922 246.5 656.312 244.255 656.312 241.297C656.312 238.307 656.932 236.047 658.172 234.516C659.411 232.974 661.031 232.203 663.031 232.203C663.865 232.203 664.599 232.318 665.234 232.547C665.87 232.776 666.417 233.083 666.875 233.469C667.344 233.854 667.74 234.286 668.062 234.766H668.219C668.156 234.432 668.078 233.943 667.984 233.297C667.901 232.641 667.859 231.969 667.859 231.281V225.688H672.641V250H668.984L668.062 247.734H667.859C667.557 248.214 667.177 248.651 666.719 249.047C666.271 249.432 665.734 249.74 665.109 249.969C664.484 250.198 663.75 250.312 662.906 250.312ZM664.578 246.516C665.88 246.516 666.797 246.13 667.328 245.359C667.87 244.578 668.156 243.406 668.188 241.844V241.328C668.188 239.63 667.927 238.333 667.406 237.438C666.885 236.531 665.917 236.078 664.5 236.078C663.448 236.078 662.625 236.531 662.031 237.438C661.438 238.344 661.141 239.651 661.141 241.359C661.141 243.068 661.438 244.354 662.031 245.219C662.635 246.083 663.484 246.516 664.578 246.516ZM684.828 232.203C686.443 232.203 687.833 232.516 689 233.141C690.167 233.755 691.068 234.651 691.703 235.828C692.339 237.005 692.656 238.443 692.656 240.141V242.453H681.391C681.443 243.797 681.844 244.854 682.594 245.625C683.354 246.385 684.406 246.766 685.75 246.766C686.865 246.766 687.885 246.651 688.812 246.422C689.74 246.193 690.693 245.849 691.672 245.391V249.078C690.807 249.505 689.901 249.818 688.953 250.016C688.016 250.214 686.875 250.312 685.531 250.312C683.781 250.312 682.229 249.99 680.875 249.344C679.531 248.698 678.474 247.714 677.703 246.391C676.943 245.068 676.562 243.401 676.562 241.391C676.562 239.349 676.906 237.651 677.594 236.297C678.292 234.932 679.26 233.911 680.5 233.234C681.74 232.547 683.182 232.203 684.828 232.203ZM684.859 235.594C683.932 235.594 683.161 235.891 682.547 236.484C681.943 237.078 681.594 238.01 681.5 239.281H688.188C688.177 238.573 688.047 237.943 687.797 237.391C687.557 236.839 687.193 236.401 686.703 236.078C686.224 235.755 685.609 235.594 684.859 235.594ZM701.297 225.688V230.641C701.297 231.505 701.266 232.328 701.203 233.109C701.151 233.891 701.109 234.443 701.078 234.766H701.328C701.703 234.161 702.146 233.672 702.656 233.297C703.177 232.922 703.75 232.646 704.375 232.469C705 232.292 705.672 232.203 706.391 232.203C707.651 232.203 708.75 232.427 709.688 232.875C710.625 233.312 711.354 234.005 711.875 234.953C712.396 235.891 712.656 237.109 712.656 238.609V250H707.891V239.797C707.891 238.547 707.661 237.604 707.203 236.969C706.745 236.333 706.036 236.016 705.078 236.016C704.12 236.016 703.365 236.24 702.812 236.688C702.26 237.125 701.87 237.776 701.641 238.641C701.411 239.495 701.297 240.542 701.297 241.781V250H696.531V225.688H701.297Z" fill="black"/>
<path d="M392.303 275.199C391.912 275.199 391.57 275.176 391.277 275.131C390.978 275.092 390.724 275.043 390.516 274.984V272.465C390.724 272.51 390.949 272.553 391.189 272.592C391.424 272.637 391.674 272.66 391.941 272.66C392.293 272.66 392.609 272.592 392.889 272.455C393.169 272.325 393.39 272.074 393.553 271.703C393.715 271.332 393.797 270.798 393.797 270.102V256.723H396.824V270.082C396.824 271.306 396.632 272.292 396.248 273.041C395.87 273.796 395.34 274.343 394.656 274.682C393.979 275.027 393.195 275.199 392.303 275.199ZM410.203 260.082V271H407.918L407.518 269.604H407.361C407.127 269.975 406.834 270.277 406.482 270.512C406.131 270.746 405.743 270.919 405.32 271.029C404.897 271.14 404.458 271.195 404.002 271.195C403.221 271.195 402.54 271.059 401.961 270.785C401.382 270.505 400.929 270.072 400.604 269.486C400.285 268.9 400.125 268.139 400.125 267.201V260.082H403.104V266.459C403.104 267.24 403.243 267.829 403.523 268.227C403.803 268.624 404.249 268.822 404.861 268.822C405.467 268.822 405.942 268.686 406.287 268.412C406.632 268.132 406.873 267.725 407.01 267.191C407.153 266.651 407.225 265.993 407.225 265.219V260.082H410.203ZM419.529 259.877C420.695 259.877 421.632 260.196 422.342 260.834C423.051 261.465 423.406 262.481 423.406 263.881V271H420.428V264.623C420.428 263.842 420.285 263.253 419.998 262.855C419.718 262.458 419.275 262.26 418.67 262.26C417.758 262.26 417.137 262.569 416.805 263.188C416.473 263.806 416.307 264.698 416.307 265.863V271H413.328V260.082H415.604L416.004 261.479H416.17C416.404 261.101 416.694 260.795 417.039 260.561C417.391 260.326 417.778 260.154 418.201 260.043C418.631 259.932 419.074 259.877 419.529 259.877ZM429.451 260.082V271H426.473V260.082H429.451ZM427.967 255.805C428.41 255.805 428.79 255.909 429.109 256.117C429.428 256.319 429.588 256.7 429.588 257.26C429.588 257.813 429.428 258.197 429.109 258.412C428.79 258.62 428.41 258.725 427.967 258.725C427.518 258.725 427.133 258.62 426.814 258.412C426.502 258.197 426.346 257.813 426.346 257.26C426.346 256.7 426.502 256.319 426.814 256.117C427.133 255.909 427.518 255.805 427.967 255.805ZM442.508 265.521C442.508 266.433 442.384 267.24 442.137 267.943C441.896 268.646 441.541 269.242 441.072 269.73C440.61 270.212 440.05 270.577 439.393 270.824C438.742 271.072 438.006 271.195 437.186 271.195C436.417 271.195 435.711 271.072 435.066 270.824C434.428 270.577 433.872 270.212 433.396 269.73C432.928 269.242 432.563 268.646 432.303 267.943C432.049 267.24 431.922 266.433 431.922 265.521C431.922 264.311 432.137 263.285 432.566 262.445C432.996 261.605 433.608 260.967 434.402 260.531C435.197 260.095 436.144 259.877 437.244 259.877C438.266 259.877 439.171 260.095 439.959 260.531C440.753 260.967 441.375 261.605 441.824 262.445C442.28 263.285 442.508 264.311 442.508 265.521ZM434.959 265.521C434.959 266.238 435.037 266.84 435.193 267.328C435.35 267.816 435.594 268.184 435.926 268.432C436.258 268.679 436.691 268.803 437.225 268.803C437.752 268.803 438.178 268.679 438.504 268.432C438.836 268.184 439.077 267.816 439.227 267.328C439.383 266.84 439.461 266.238 439.461 265.521C439.461 264.799 439.383 264.2 439.227 263.725C439.077 263.243 438.836 262.882 438.504 262.641C438.172 262.4 437.739 262.279 437.205 262.279C436.417 262.279 435.844 262.549 435.486 263.09C435.135 263.63 434.959 264.441 434.959 265.521ZM451.062 259.877C451.212 259.877 451.385 259.887 451.58 259.906C451.782 259.919 451.945 259.939 452.068 259.965L451.844 262.758C451.746 262.725 451.606 262.702 451.424 262.689C451.248 262.67 451.095 262.66 450.965 262.66C450.581 262.66 450.206 262.709 449.842 262.807C449.484 262.904 449.161 263.064 448.875 263.285C448.589 263.5 448.361 263.786 448.191 264.145C448.029 264.496 447.947 264.929 447.947 265.443V271H444.969V260.082H447.225L447.664 261.918H447.811C448.025 261.547 448.292 261.208 448.611 260.902C448.937 260.59 449.305 260.342 449.715 260.16C450.132 259.971 450.581 259.877 451.062 259.877ZM477.02 256.723L473.387 271H469.939L468.006 263.5C467.967 263.357 467.915 263.139 467.85 262.846C467.785 262.553 467.716 262.234 467.645 261.889C467.573 261.537 467.508 261.208 467.449 260.902C467.397 260.59 467.361 260.342 467.342 260.16C467.322 260.342 467.283 260.587 467.225 260.893C467.173 261.199 467.111 261.524 467.039 261.869C466.974 262.214 466.909 262.536 466.844 262.836C466.779 263.135 466.727 263.363 466.688 263.52L464.764 271H461.326L457.684 256.723H460.662L462.488 264.516C462.54 264.75 462.599 265.03 462.664 265.355C462.736 265.681 462.804 266.023 462.869 266.381C462.941 266.732 463.003 267.074 463.055 267.406C463.113 267.732 463.156 268.015 463.182 268.256C463.214 268.008 463.257 267.722 463.309 267.396C463.361 267.064 463.416 266.729 463.475 266.391C463.54 266.046 463.605 265.727 463.67 265.434C463.735 265.141 463.794 264.903 463.846 264.721L465.926 256.723H468.787L470.867 264.721C470.913 264.896 470.965 265.134 471.023 265.434C471.089 265.727 471.154 266.046 471.219 266.391C471.284 266.736 471.342 267.074 471.395 267.406C471.453 267.732 471.495 268.015 471.521 268.256C471.567 267.93 471.629 267.536 471.707 267.074C471.792 266.605 471.88 266.14 471.971 265.678C472.068 265.215 472.153 264.828 472.225 264.516L474.041 256.723H477.02ZM483.084 259.877C484.093 259.877 484.962 260.072 485.691 260.463C486.421 260.847 486.984 261.407 487.381 262.143C487.778 262.878 487.977 263.777 487.977 264.838V266.283H480.936C480.968 267.123 481.219 267.784 481.688 268.266C482.163 268.741 482.82 268.979 483.66 268.979C484.357 268.979 484.995 268.907 485.574 268.764C486.154 268.62 486.749 268.406 487.361 268.119V270.424C486.821 270.691 486.255 270.886 485.662 271.01C485.076 271.133 484.363 271.195 483.523 271.195C482.43 271.195 481.46 270.993 480.613 270.59C479.773 270.186 479.113 269.571 478.631 268.744C478.156 267.917 477.918 266.876 477.918 265.619C477.918 264.343 478.133 263.282 478.562 262.436C478.999 261.583 479.604 260.945 480.379 260.521C481.154 260.092 482.055 259.877 483.084 259.877ZM483.104 261.996C482.524 261.996 482.042 262.182 481.658 262.553C481.281 262.924 481.062 263.507 481.004 264.301H485.184C485.177 263.858 485.096 263.464 484.939 263.119C484.79 262.774 484.562 262.501 484.256 262.299C483.956 262.097 483.572 261.996 483.104 261.996ZM493.377 255.805V259.34C493.377 259.75 493.364 260.157 493.338 260.561C493.318 260.964 493.292 261.277 493.26 261.498H493.377C493.663 261.049 494.054 260.668 494.549 260.355C495.044 260.036 495.685 259.877 496.473 259.877C497.697 259.877 498.689 260.355 499.451 261.312C500.213 262.27 500.594 263.673 500.594 265.521C500.594 266.765 500.418 267.81 500.066 268.656C499.715 269.496 499.223 270.131 498.592 270.561C497.96 270.984 497.228 271.195 496.395 271.195C495.594 271.195 494.962 271.052 494.5 270.766C494.038 270.479 493.663 270.157 493.377 269.799H493.172L492.674 271H490.398V255.805H493.377ZM495.516 262.26C494.995 262.26 494.581 262.367 494.275 262.582C493.969 262.797 493.745 263.119 493.602 263.549C493.465 263.979 493.39 264.522 493.377 265.18V265.502C493.377 266.563 493.533 267.377 493.846 267.943C494.158 268.503 494.728 268.783 495.555 268.783C496.167 268.783 496.652 268.5 497.01 267.934C497.374 267.367 497.557 266.55 497.557 265.482C497.557 264.415 497.374 263.611 497.01 263.07C496.645 262.53 496.147 262.26 495.516 262.26ZM520.33 263.725C520.33 265.333 520.021 266.677 519.402 267.758C518.79 268.832 517.902 269.643 516.736 270.189C515.571 270.73 514.168 271 512.527 271H508.484V256.723H512.967C514.464 256.723 515.763 256.99 516.863 257.523C517.964 258.051 518.816 258.835 519.422 259.877C520.027 260.912 520.33 262.195 520.33 263.725ZM517.186 263.803C517.186 262.748 517.029 261.882 516.717 261.205C516.411 260.521 515.955 260.017 515.35 259.691C514.751 259.366 514.008 259.203 513.123 259.203H511.512V268.5H512.811C514.288 268.5 515.385 268.106 516.102 267.318C516.824 266.531 517.186 265.359 517.186 263.803ZM527.557 259.877C528.566 259.877 529.435 260.072 530.164 260.463C530.893 260.847 531.456 261.407 531.854 262.143C532.251 262.878 532.449 263.777 532.449 264.838V266.283H525.408C525.441 267.123 525.691 267.784 526.16 268.266C526.635 268.741 527.293 268.979 528.133 268.979C528.829 268.979 529.467 268.907 530.047 268.764C530.626 268.62 531.222 268.406 531.834 268.119V270.424C531.294 270.691 530.727 270.886 530.135 271.01C529.549 271.133 528.836 271.195 527.996 271.195C526.902 271.195 525.932 270.993 525.086 270.59C524.246 270.186 523.585 269.571 523.104 268.744C522.628 267.917 522.391 266.876 522.391 265.619C522.391 264.343 522.605 263.282 523.035 262.436C523.471 261.583 524.077 260.945 524.852 260.521C525.626 260.092 526.528 259.877 527.557 259.877ZM527.576 261.996C526.997 261.996 526.515 262.182 526.131 262.553C525.753 262.924 525.535 263.507 525.477 264.301H529.656C529.65 263.858 529.568 263.464 529.412 263.119C529.262 262.774 529.035 262.501 528.729 262.299C528.429 262.097 528.045 261.996 527.576 261.996ZM537.469 271L533.309 260.082H536.424L538.533 266.303C538.65 266.667 538.742 267.051 538.807 267.455C538.878 267.859 538.927 268.22 538.953 268.539H539.031C539.051 268.194 539.096 267.826 539.168 267.436C539.246 267.045 539.347 266.667 539.471 266.303L541.57 260.082H544.686L540.525 271H537.469ZM550.76 259.877C551.769 259.877 552.638 260.072 553.367 260.463C554.096 260.847 554.66 261.407 555.057 262.143C555.454 262.878 555.652 263.777 555.652 264.838V266.283H548.611C548.644 267.123 548.895 267.784 549.363 268.266C549.839 268.741 550.496 268.979 551.336 268.979C552.033 268.979 552.671 268.907 553.25 268.764C553.829 268.62 554.425 268.406 555.037 268.119V270.424C554.497 270.691 553.93 270.886 553.338 271.01C552.752 271.133 552.039 271.195 551.199 271.195C550.105 271.195 549.135 270.993 548.289 270.59C547.449 270.186 546.788 269.571 546.307 268.744C545.831 267.917 545.594 266.876 545.594 265.619C545.594 264.343 545.809 263.282 546.238 262.436C546.674 261.583 547.28 260.945 548.055 260.521C548.829 260.092 549.731 259.877 550.76 259.877ZM550.779 261.996C550.2 261.996 549.718 262.182 549.334 262.553C548.956 262.924 548.738 263.507 548.68 264.301H552.859C552.853 263.858 552.771 263.464 552.615 263.119C552.465 262.774 552.238 262.501 551.932 262.299C551.632 262.097 551.248 261.996 550.779 261.996ZM561.053 271H558.074V255.805H561.053V271ZM574.109 265.521C574.109 266.433 573.986 267.24 573.738 267.943C573.497 268.646 573.143 269.242 572.674 269.73C572.212 270.212 571.652 270.577 570.994 270.824C570.343 271.072 569.607 271.195 568.787 271.195C568.019 271.195 567.312 271.072 566.668 270.824C566.03 270.577 565.473 270.212 564.998 269.73C564.529 269.242 564.165 268.646 563.904 267.943C563.65 267.24 563.523 266.433 563.523 265.521C563.523 264.311 563.738 263.285 564.168 262.445C564.598 261.605 565.21 260.967 566.004 260.531C566.798 260.095 567.745 259.877 568.846 259.877C569.868 259.877 570.773 260.095 571.561 260.531C572.355 260.967 572.977 261.605 573.426 262.445C573.882 263.285 574.109 264.311 574.109 265.521ZM566.561 265.521C566.561 266.238 566.639 266.84 566.795 267.328C566.951 267.816 567.195 268.184 567.527 268.432C567.859 268.679 568.292 268.803 568.826 268.803C569.354 268.803 569.78 268.679 570.105 268.432C570.438 268.184 570.678 267.816 570.828 267.328C570.984 266.84 571.062 266.238 571.062 265.521C571.062 264.799 570.984 264.2 570.828 263.725C570.678 263.243 570.438 262.882 570.105 262.641C569.773 262.4 569.34 262.279 568.807 262.279C568.019 262.279 567.446 262.549 567.088 263.09C566.736 263.63 566.561 264.441 566.561 265.521ZM582.645 259.877C583.875 259.877 584.868 260.355 585.623 261.312C586.385 262.27 586.766 263.673 586.766 265.521C586.766 266.758 586.587 267.8 586.229 268.646C585.87 269.486 585.376 270.121 584.744 270.551C584.113 270.98 583.387 271.195 582.566 271.195C582.039 271.195 581.587 271.13 581.209 271C580.831 270.863 580.509 270.691 580.242 270.482C579.975 270.268 579.744 270.04 579.549 269.799H579.393C579.445 270.059 579.484 270.326 579.51 270.6C579.536 270.873 579.549 271.14 579.549 271.4V275.805H576.57V260.082H578.992L579.412 261.498H579.549C579.744 261.205 579.982 260.935 580.262 260.688C580.542 260.44 580.877 260.245 581.268 260.102C581.665 259.952 582.124 259.877 582.645 259.877ZM581.688 262.26C581.167 262.26 580.753 262.367 580.447 262.582C580.141 262.797 579.917 263.119 579.773 263.549C579.637 263.979 579.562 264.522 579.549 265.18V265.502C579.549 266.205 579.614 266.801 579.744 267.289C579.881 267.777 580.105 268.148 580.418 268.402C580.737 268.656 581.173 268.783 581.727 268.783C582.182 268.783 582.557 268.656 582.85 268.402C583.143 268.148 583.361 267.777 583.504 267.289C583.654 266.794 583.729 266.192 583.729 265.482C583.729 264.415 583.562 263.611 583.23 263.07C582.898 262.53 582.384 262.26 581.688 262.26ZM593.729 259.877C594.738 259.877 595.607 260.072 596.336 260.463C597.065 260.847 597.628 261.407 598.025 262.143C598.423 262.878 598.621 263.777 598.621 264.838V266.283H591.58C591.613 267.123 591.863 267.784 592.332 268.266C592.807 268.741 593.465 268.979 594.305 268.979C595.001 268.979 595.639 268.907 596.219 268.764C596.798 268.62 597.394 268.406 598.006 268.119V270.424C597.465 270.691 596.899 270.886 596.307 271.01C595.721 271.133 595.008 271.195 594.168 271.195C593.074 271.195 592.104 270.993 591.258 270.59C590.418 270.186 589.757 269.571 589.275 268.744C588.8 267.917 588.562 266.876 588.562 265.619C588.562 264.343 588.777 263.282 589.207 262.436C589.643 261.583 590.249 260.945 591.023 260.521C591.798 260.092 592.7 259.877 593.729 259.877ZM593.748 261.996C593.169 261.996 592.687 262.182 592.303 262.553C591.925 262.924 591.707 263.507 591.648 264.301H595.828C595.822 263.858 595.74 263.464 595.584 263.119C595.434 262.774 595.206 262.501 594.9 262.299C594.601 262.097 594.217 261.996 593.748 261.996ZM607.137 259.877C607.286 259.877 607.459 259.887 607.654 259.906C607.856 259.919 608.019 259.939 608.143 259.965L607.918 262.758C607.82 262.725 607.68 262.702 607.498 262.689C607.322 262.67 607.169 262.66 607.039 262.66C606.655 262.66 606.281 262.709 605.916 262.807C605.558 262.904 605.236 263.064 604.949 263.285C604.663 263.5 604.435 263.786 604.266 264.145C604.103 264.496 604.021 264.929 604.021 265.443V271H601.043V260.082H603.299L603.738 261.918H603.885C604.1 261.547 604.367 261.208 604.686 260.902C605.011 260.59 605.379 260.342 605.789 260.16C606.206 259.971 606.655 259.877 607.137 259.877Z" fill="black"/>
<path d="M431.724 368.26C431.724 368.467 431.492 368.632 431.2 368.632C430.867 368.663 430.635 368.498 430.635 368.26C430.635 368.053 430.867 367.888 431.159 367.888C431.462 367.857 431.724 368.022 431.724 368.26ZM428.589 367.795C428.518 368.001 428.72 368.239 429.022 368.301C429.284 368.405 429.587 368.301 429.647 368.094C429.708 367.888 429.516 367.65 429.214 367.557C428.952 367.485 428.659 367.588 428.589 367.795ZM433.044 367.619C432.752 367.691 432.55 367.888 432.581 368.126C432.611 368.332 432.873 368.467 433.175 368.394C433.468 368.322 433.669 368.126 433.639 367.919C433.609 367.722 433.337 367.588 433.044 367.619ZM439.677 328C425.696 328 415 338.887 415 353.227C415 364.693 422.036 374.505 432.087 377.958C433.377 378.196 433.831 377.379 433.831 376.707C433.831 376.066 433.8 372.53 433.8 370.359C433.8 370.359 426.744 371.91 425.262 367.278C425.262 367.278 424.113 364.269 422.46 363.494C422.46 363.494 420.151 361.87 422.621 361.901C422.621 361.901 425.131 362.108 426.512 364.569C428.72 368.56 432.419 367.412 433.861 366.73C434.093 365.076 434.748 363.928 435.474 363.246C429.839 362.605 424.153 361.767 424.153 351.821C424.153 348.978 424.919 347.551 426.532 345.731C426.27 345.059 425.413 342.288 426.794 338.711C428.901 338.039 433.75 341.503 433.75 341.503C435.766 340.924 437.933 340.624 440.081 340.624C442.228 340.624 444.395 340.924 446.411 341.503C446.411 341.503 451.26 338.029 453.367 338.711C454.748 342.299 453.891 345.059 453.629 345.731C455.242 347.561 456.23 348.988 456.23 351.821C456.23 361.798 450.292 362.594 444.657 363.246C445.585 364.062 446.371 365.613 446.371 368.043C446.371 371.527 446.341 375.838 446.341 376.686C446.341 377.358 446.804 378.175 448.085 377.937C458.165 374.505 465 364.693 465 353.227C465 338.887 453.659 328 439.677 328ZM424.798 363.659C424.667 363.762 424.698 364 424.869 364.197C425.03 364.362 425.262 364.435 425.393 364.3C425.524 364.197 425.494 363.959 425.323 363.762C425.161 363.597 424.929 363.525 424.798 363.659ZM423.71 362.822C423.639 362.956 423.74 363.121 423.942 363.225C424.103 363.328 424.304 363.297 424.375 363.152C424.446 363.018 424.345 362.853 424.143 362.749C423.942 362.687 423.78 362.718 423.71 362.822ZM426.976 366.502C426.815 366.637 426.875 366.947 427.107 367.143C427.339 367.381 427.631 367.412 427.762 367.247C427.893 367.112 427.833 366.802 427.631 366.606C427.409 366.368 427.107 366.337 426.976 366.502ZM425.827 364.982C425.665 365.086 425.665 365.355 425.827 365.592C425.988 365.83 426.26 365.934 426.391 365.83C426.552 365.696 426.552 365.427 426.391 365.189C426.25 364.951 425.988 364.848 425.827 364.982Z" fill="black"/>
<path d="M483.24 340.602L486.219 334.723H489.48L484.744 343.443V349H481.736V343.541L477 334.723H480.281L483.24 340.602ZM495.516 337.857C496.98 337.857 498.104 338.176 498.885 338.814C499.666 339.452 500.057 340.423 500.057 341.725V349H497.977L497.4 347.516H497.322C497.01 347.906 496.691 348.225 496.365 348.473C496.04 348.72 495.665 348.902 495.242 349.02C494.819 349.137 494.305 349.195 493.699 349.195C493.055 349.195 492.475 349.072 491.961 348.824C491.453 348.577 491.053 348.199 490.76 347.691C490.467 347.177 490.32 346.526 490.32 345.738C490.32 344.579 490.727 343.727 491.541 343.18C492.355 342.626 493.576 342.32 495.203 342.262L497.098 342.203V341.725C497.098 341.152 496.948 340.732 496.648 340.465C496.349 340.198 495.932 340.064 495.398 340.064C494.871 340.064 494.354 340.139 493.846 340.289C493.338 340.439 492.83 340.628 492.322 340.855L491.336 338.844C491.915 338.538 492.563 338.297 493.279 338.121C494.002 337.945 494.747 337.857 495.516 337.857ZM497.098 343.941L495.945 343.98C494.982 344.007 494.311 344.179 493.934 344.498C493.562 344.817 493.377 345.237 493.377 345.758C493.377 346.214 493.51 346.539 493.777 346.734C494.044 346.923 494.393 347.018 494.822 347.018C495.46 347.018 495.997 346.829 496.434 346.451C496.876 346.074 497.098 345.536 497.098 344.84V343.941ZM506.111 349H503.133V333.805H506.111V349ZM512.703 349.195C511.486 349.195 510.493 348.72 509.725 347.77C508.963 346.812 508.582 345.41 508.582 343.561C508.582 341.692 508.969 340.279 509.744 339.322C510.519 338.359 511.531 337.877 512.781 337.877C513.302 337.877 513.761 337.949 514.158 338.092C514.555 338.235 514.897 338.427 515.184 338.668C515.477 338.909 515.724 339.179 515.926 339.479H516.023C515.984 339.27 515.936 338.964 515.877 338.561C515.825 338.15 515.799 337.73 515.799 337.301V333.805H518.787V349H516.502L515.926 347.584H515.799C515.61 347.883 515.372 348.157 515.086 348.404C514.806 348.645 514.471 348.837 514.08 348.98C513.689 349.124 513.23 349.195 512.703 349.195ZM513.748 346.822C514.562 346.822 515.135 346.581 515.467 346.1C515.805 345.611 515.984 344.879 516.004 343.902V343.58C516.004 342.519 515.841 341.708 515.516 341.148C515.19 340.582 514.585 340.299 513.699 340.299C513.042 340.299 512.527 340.582 512.156 341.148C511.785 341.715 511.6 342.532 511.6 343.6C511.6 344.667 511.785 345.471 512.156 346.012C512.534 346.552 513.064 346.822 513.748 346.822ZM526.375 337.857C527.84 337.857 528.963 338.176 529.744 338.814C530.525 339.452 530.916 340.423 530.916 341.725V349H528.836L528.26 347.516H528.182C527.869 347.906 527.55 348.225 527.225 348.473C526.899 348.72 526.525 348.902 526.102 349.02C525.678 349.137 525.164 349.195 524.559 349.195C523.914 349.195 523.335 349.072 522.82 348.824C522.312 348.577 521.912 348.199 521.619 347.691C521.326 347.177 521.18 346.526 521.18 345.738C521.18 344.579 521.587 343.727 522.4 343.18C523.214 342.626 524.435 342.32 526.062 342.262L527.957 342.203V341.725C527.957 341.152 527.807 340.732 527.508 340.465C527.208 340.198 526.792 340.064 526.258 340.064C525.73 340.064 525.213 340.139 524.705 340.289C524.197 340.439 523.689 340.628 523.182 340.855L522.195 338.844C522.775 338.538 523.423 338.297 524.139 338.121C524.861 337.945 525.607 337.857 526.375 337.857ZM527.957 343.941L526.805 343.98C525.841 344.007 525.171 344.179 524.793 344.498C524.422 344.817 524.236 345.237 524.236 345.758C524.236 346.214 524.37 346.539 524.637 346.734C524.904 346.923 525.252 347.018 525.682 347.018C526.32 347.018 526.857 346.829 527.293 346.451C527.736 346.074 527.957 345.536 527.957 344.84V343.941ZM539.646 340.982H545.311V348.385C544.562 348.632 543.784 348.831 542.977 348.98C542.169 349.124 541.255 349.195 540.232 349.195C538.813 349.195 537.609 348.915 536.619 348.355C535.63 347.796 534.878 346.969 534.363 345.875C533.849 344.781 533.592 343.437 533.592 341.842C533.592 340.344 533.878 339.049 534.451 337.955C535.031 336.861 535.874 336.015 536.98 335.416C538.094 334.817 539.451 334.518 541.053 334.518C541.808 334.518 542.553 334.599 543.289 334.762C544.025 334.924 544.692 335.136 545.291 335.396L544.285 337.818C543.849 337.597 543.351 337.411 542.791 337.262C542.231 337.112 541.645 337.037 541.033 337.037C540.154 337.037 539.389 337.239 538.738 337.643C538.094 338.046 537.592 338.613 537.234 339.342C536.883 340.064 536.707 340.917 536.707 341.9C536.707 342.831 536.834 343.658 537.088 344.381C537.342 345.097 537.742 345.66 538.289 346.07C538.836 346.474 539.549 346.676 540.428 346.676C540.857 346.676 541.219 346.656 541.512 346.617C541.811 346.572 542.091 346.526 542.352 346.48V343.502H539.646V340.982ZM551.463 333.805V336.9C551.463 337.441 551.443 337.955 551.404 338.443C551.372 338.932 551.346 339.277 551.326 339.479H551.482C551.717 339.101 551.993 338.795 552.312 338.561C552.638 338.326 552.996 338.154 553.387 338.043C553.777 337.932 554.197 337.877 554.646 337.877C555.434 337.877 556.121 338.017 556.707 338.297C557.293 338.57 557.749 339.003 558.074 339.596C558.4 340.182 558.562 340.943 558.562 341.881V349H555.584V342.623C555.584 341.842 555.441 341.253 555.154 340.855C554.868 340.458 554.425 340.26 553.826 340.26C553.227 340.26 552.755 340.4 552.41 340.68C552.065 340.953 551.821 341.36 551.678 341.9C551.535 342.434 551.463 343.089 551.463 343.863V349H548.484V333.805H551.463ZM566.102 337.857C567.566 337.857 568.689 338.176 569.471 338.814C570.252 339.452 570.643 340.423 570.643 341.725V349H568.562L567.986 347.516H567.908C567.596 347.906 567.277 348.225 566.951 348.473C566.626 348.72 566.251 348.902 565.828 349.02C565.405 349.137 564.891 349.195 564.285 349.195C563.641 349.195 563.061 349.072 562.547 348.824C562.039 348.577 561.639 348.199 561.346 347.691C561.053 347.177 560.906 346.526 560.906 345.738C560.906 344.579 561.313 343.727 562.127 343.18C562.941 342.626 564.161 342.32 565.789 342.262L567.684 342.203V341.725C567.684 341.152 567.534 340.732 567.234 340.465C566.935 340.198 566.518 340.064 565.984 340.064C565.457 340.064 564.939 340.139 564.432 340.289C563.924 340.439 563.416 340.628 562.908 340.855L561.922 338.844C562.501 338.538 563.149 338.297 563.865 338.121C564.588 337.945 565.333 337.857 566.102 337.857ZM567.684 343.941L566.531 343.98C565.568 344.007 564.897 344.179 564.52 344.498C564.148 344.817 563.963 345.237 563.963 345.758C563.963 346.214 564.096 346.539 564.363 346.734C564.63 346.923 564.979 347.018 565.408 347.018C566.046 347.018 566.583 346.829 567.02 346.451C567.462 346.074 567.684 345.536 567.684 344.84V343.941ZM578.221 337.877C579.23 337.877 580.099 338.072 580.828 338.463C581.557 338.847 582.12 339.407 582.518 340.143C582.915 340.878 583.113 341.777 583.113 342.838V344.283H576.072C576.105 345.123 576.355 345.784 576.824 346.266C577.299 346.741 577.957 346.979 578.797 346.979C579.493 346.979 580.132 346.907 580.711 346.764C581.29 346.62 581.886 346.406 582.498 346.119V348.424C581.958 348.691 581.391 348.886 580.799 349.01C580.213 349.133 579.5 349.195 578.66 349.195C577.566 349.195 576.596 348.993 575.75 348.59C574.91 348.186 574.249 347.571 573.768 346.744C573.292 345.917 573.055 344.876 573.055 343.619C573.055 342.343 573.27 341.282 573.699 340.436C574.135 339.583 574.741 338.945 575.516 338.521C576.29 338.092 577.192 337.877 578.221 337.877ZM578.24 339.996C577.661 339.996 577.179 340.182 576.795 340.553C576.417 340.924 576.199 341.507 576.141 342.301H580.32C580.314 341.858 580.232 341.464 580.076 341.119C579.926 340.774 579.699 340.501 579.393 340.299C579.093 340.097 578.709 339.996 578.24 339.996ZM598.357 337.877C599.594 337.877 600.529 338.196 601.16 338.834C601.798 339.465 602.117 340.481 602.117 341.881V349H599.129V342.623C599.129 341.842 598.995 341.253 598.729 340.855C598.462 340.458 598.048 340.26 597.488 340.26C596.701 340.26 596.141 340.543 595.809 341.109C595.477 341.669 595.311 342.473 595.311 343.521V349H592.332V342.623C592.332 342.102 592.273 341.666 592.156 341.314C592.039 340.963 591.86 340.699 591.619 340.523C591.378 340.348 591.069 340.26 590.691 340.26C590.138 340.26 589.702 340.4 589.383 340.68C589.07 340.953 588.846 341.36 588.709 341.9C588.579 342.434 588.514 343.089 588.514 343.863V349H585.535V338.082H587.811L588.211 339.479H588.377C588.598 339.101 588.875 338.795 589.207 338.561C589.546 338.326 589.917 338.154 590.32 338.043C590.724 337.932 591.134 337.877 591.551 337.877C592.352 337.877 593.029 338.007 593.582 338.268C594.142 338.528 594.572 338.932 594.871 339.479H595.135C595.46 338.919 595.919 338.512 596.512 338.258C597.111 338.004 597.726 337.877 598.357 337.877ZM608.162 338.082V349H605.184V338.082H608.162ZM606.678 333.805C607.12 333.805 607.501 333.909 607.82 334.117C608.139 334.319 608.299 334.7 608.299 335.26C608.299 335.813 608.139 336.197 607.82 336.412C607.501 336.62 607.12 336.725 606.678 336.725C606.229 336.725 605.844 336.62 605.525 336.412C605.213 336.197 605.057 335.813 605.057 335.26C605.057 334.7 605.213 334.319 605.525 334.117C605.844 333.909 606.229 333.805 606.678 333.805ZM620.838 349H610.213V347.037L617.059 337.223H610.398V334.723H620.652V336.676L613.816 346.5H620.838V349ZM627.352 337.857C628.816 337.857 629.939 338.176 630.721 338.814C631.502 339.452 631.893 340.423 631.893 341.725V349H629.812L629.236 347.516H629.158C628.846 347.906 628.527 348.225 628.201 348.473C627.876 348.72 627.501 348.902 627.078 349.02C626.655 349.137 626.141 349.195 625.535 349.195C624.891 349.195 624.311 349.072 623.797 348.824C623.289 348.577 622.889 348.199 622.596 347.691C622.303 347.177 622.156 346.526 622.156 345.738C622.156 344.579 622.563 343.727 623.377 343.18C624.191 342.626 625.411 342.32 627.039 342.262L628.934 342.203V341.725C628.934 341.152 628.784 340.732 628.484 340.465C628.185 340.198 627.768 340.064 627.234 340.064C626.707 340.064 626.189 340.139 625.682 340.289C625.174 340.439 624.666 340.628 624.158 340.855L623.172 338.844C623.751 338.538 624.399 338.297 625.115 338.121C625.838 337.945 626.583 337.857 627.352 337.857ZM628.934 343.941L627.781 343.98C626.818 344.007 626.147 344.179 625.77 344.498C625.398 344.817 625.213 345.237 625.213 345.758C625.213 346.214 625.346 346.539 625.613 346.734C625.88 346.923 626.229 347.018 626.658 347.018C627.296 347.018 627.833 346.829 628.27 346.451C628.712 346.074 628.934 345.536 628.934 344.84V343.941ZM638.426 349.195C637.208 349.195 636.215 348.72 635.447 347.77C634.686 346.812 634.305 345.41 634.305 343.561C634.305 341.692 634.692 340.279 635.467 339.322C636.242 338.359 637.254 337.877 638.504 337.877C639.025 337.877 639.484 337.949 639.881 338.092C640.278 338.235 640.62 338.427 640.906 338.668C641.199 338.909 641.447 339.179 641.648 339.479H641.746C641.707 339.27 641.658 338.964 641.6 338.561C641.548 338.15 641.521 337.73 641.521 337.301V333.805H644.51V349H642.225L641.648 347.584H641.521C641.333 347.883 641.095 348.157 640.809 348.404C640.529 348.645 640.193 348.837 639.803 348.98C639.412 349.124 638.953 349.195 638.426 349.195ZM639.471 346.822C640.285 346.822 640.857 346.581 641.189 346.1C641.528 345.611 641.707 344.879 641.727 343.902V343.58C641.727 342.519 641.564 341.708 641.238 341.148C640.913 340.582 640.307 340.299 639.422 340.299C638.764 340.299 638.25 340.582 637.879 341.148C637.508 341.715 637.322 342.532 637.322 343.6C637.322 344.667 637.508 345.471 637.879 346.012C638.257 346.552 638.787 346.822 639.471 346.822ZM652.127 337.877C653.136 337.877 654.005 338.072 654.734 338.463C655.464 338.847 656.027 339.407 656.424 340.143C656.821 340.878 657.02 341.777 657.02 342.838V344.283H649.979C650.011 345.123 650.262 345.784 650.73 346.266C651.206 346.741 651.863 346.979 652.703 346.979C653.4 346.979 654.038 346.907 654.617 346.764C655.197 346.62 655.792 346.406 656.404 346.119V348.424C655.864 348.691 655.298 348.886 654.705 349.01C654.119 349.133 653.406 349.195 652.566 349.195C651.473 349.195 650.503 348.993 649.656 348.59C648.816 348.186 648.156 347.571 647.674 346.744C647.199 345.917 646.961 344.876 646.961 343.619C646.961 342.343 647.176 341.282 647.605 340.436C648.042 339.583 648.647 338.945 649.422 338.521C650.197 338.092 651.098 337.877 652.127 337.877ZM652.146 339.996C651.567 339.996 651.085 340.182 650.701 340.553C650.324 340.924 650.105 341.507 650.047 342.301H654.227C654.22 341.858 654.139 341.464 653.982 341.119C653.833 340.774 653.605 340.501 653.299 340.299C652.999 340.097 652.615 339.996 652.146 339.996ZM662.42 333.805V336.9C662.42 337.441 662.4 337.955 662.361 338.443C662.329 338.932 662.303 339.277 662.283 339.479H662.439C662.674 339.101 662.951 338.795 663.27 338.561C663.595 338.326 663.953 338.154 664.344 338.043C664.734 337.932 665.154 337.877 665.604 337.877C666.391 337.877 667.078 338.017 667.664 338.297C668.25 338.57 668.706 339.003 669.031 339.596C669.357 340.182 669.52 340.943 669.52 341.881V349H666.541V342.623C666.541 341.842 666.398 341.253 666.111 340.855C665.825 340.458 665.382 340.26 664.783 340.26C664.184 340.26 663.712 340.4 663.367 340.68C663.022 340.953 662.778 341.36 662.635 341.9C662.492 342.434 662.42 343.089 662.42 343.863V349H659.441V333.805H662.42ZM485.164 361.723L479.842 376H477.137L482.459 361.723H485.164ZM504.598 361.723L500.965 376H497.518L495.584 368.5C495.545 368.357 495.493 368.139 495.428 367.846C495.363 367.553 495.294 367.234 495.223 366.889C495.151 366.537 495.086 366.208 495.027 365.902C494.975 365.59 494.939 365.342 494.92 365.16C494.9 365.342 494.861 365.587 494.803 365.893C494.751 366.199 494.689 366.524 494.617 366.869C494.552 367.214 494.487 367.536 494.422 367.836C494.357 368.135 494.305 368.363 494.266 368.52L492.342 376H488.904L485.262 361.723H488.24L490.066 369.516C490.118 369.75 490.177 370.03 490.242 370.355C490.314 370.681 490.382 371.023 490.447 371.381C490.519 371.732 490.581 372.074 490.633 372.406C490.691 372.732 490.734 373.015 490.76 373.256C490.792 373.008 490.835 372.722 490.887 372.396C490.939 372.064 490.994 371.729 491.053 371.391C491.118 371.046 491.183 370.727 491.248 370.434C491.313 370.141 491.372 369.903 491.424 369.721L493.504 361.723H496.365L498.445 369.721C498.491 369.896 498.543 370.134 498.602 370.434C498.667 370.727 498.732 371.046 498.797 371.391C498.862 371.736 498.921 372.074 498.973 372.406C499.031 372.732 499.074 373.015 499.1 373.256C499.145 372.93 499.207 372.536 499.285 372.074C499.37 371.605 499.458 371.14 499.549 370.678C499.646 370.215 499.731 369.828 499.803 369.516L501.619 361.723H504.598ZM516.082 370.521C516.082 371.433 515.958 372.24 515.711 372.943C515.47 373.646 515.115 374.242 514.646 374.73C514.184 375.212 513.624 375.577 512.967 375.824C512.316 376.072 511.58 376.195 510.76 376.195C509.992 376.195 509.285 376.072 508.641 375.824C508.003 375.577 507.446 375.212 506.971 374.73C506.502 374.242 506.137 373.646 505.877 372.943C505.623 372.24 505.496 371.433 505.496 370.521C505.496 369.311 505.711 368.285 506.141 367.445C506.57 366.605 507.182 365.967 507.977 365.531C508.771 365.095 509.718 364.877 510.818 364.877C511.84 364.877 512.745 365.095 513.533 365.531C514.327 365.967 514.949 366.605 515.398 367.445C515.854 368.285 516.082 369.311 516.082 370.521ZM508.533 370.521C508.533 371.238 508.611 371.84 508.768 372.328C508.924 372.816 509.168 373.184 509.5 373.432C509.832 373.679 510.265 373.803 510.799 373.803C511.326 373.803 511.753 373.679 512.078 373.432C512.41 373.184 512.651 372.816 512.801 372.328C512.957 371.84 513.035 371.238 513.035 370.521C513.035 369.799 512.957 369.2 512.801 368.725C512.651 368.243 512.41 367.882 512.078 367.641C511.746 367.4 511.313 367.279 510.779 367.279C509.992 367.279 509.419 367.549 509.061 368.09C508.709 368.63 508.533 369.441 508.533 370.521ZM524.637 364.877C524.786 364.877 524.959 364.887 525.154 364.906C525.356 364.919 525.519 364.939 525.643 364.965L525.418 367.758C525.32 367.725 525.18 367.702 524.998 367.689C524.822 367.67 524.669 367.66 524.539 367.66C524.155 367.66 523.781 367.709 523.416 367.807C523.058 367.904 522.736 368.064 522.449 368.285C522.163 368.5 521.935 368.786 521.766 369.145C521.603 369.496 521.521 369.929 521.521 370.443V376H518.543V365.082H520.799L521.238 366.918H521.385C521.6 366.547 521.867 366.208 522.186 365.902C522.511 365.59 522.879 365.342 523.289 365.16C523.706 364.971 524.155 364.877 524.637 364.877ZM530.604 360.805V367.602C530.604 368.012 530.587 368.422 530.555 368.832C530.522 369.242 530.486 369.652 530.447 370.062H530.486C530.688 369.776 530.893 369.493 531.102 369.213C531.316 368.933 531.544 368.663 531.785 368.402L534.842 365.082H538.201L533.865 369.818L538.465 376H535.027L531.883 371.576L530.604 372.602V376H527.625V360.805H530.604ZM548.689 372.035C548.689 372.882 548.484 373.617 548.074 374.242C547.664 374.867 547.065 375.349 546.277 375.688C545.496 376.026 544.546 376.195 543.426 376.195C542.931 376.195 542.446 376.163 541.971 376.098C541.502 376.033 541.049 375.938 540.613 375.814C540.184 375.684 539.773 375.525 539.383 375.336V372.523C540.06 372.823 540.763 373.093 541.492 373.334C542.221 373.575 542.944 373.695 543.66 373.695C544.155 373.695 544.552 373.63 544.852 373.5C545.158 373.37 545.379 373.191 545.516 372.963C545.652 372.735 545.721 372.475 545.721 372.182C545.721 371.824 545.6 371.518 545.359 371.264C545.118 371.01 544.786 370.772 544.363 370.551C543.947 370.329 543.475 370.092 542.947 369.838C542.615 369.682 542.254 369.493 541.863 369.271C541.473 369.044 541.102 368.767 540.75 368.441C540.398 368.116 540.109 367.722 539.881 367.26C539.66 366.791 539.549 366.231 539.549 365.58C539.549 364.727 539.744 363.998 540.135 363.393C540.525 362.787 541.082 362.325 541.805 362.006C542.534 361.68 543.393 361.518 544.383 361.518C545.125 361.518 545.831 361.605 546.502 361.781C547.179 361.951 547.885 362.198 548.621 362.523L547.645 364.877C546.987 364.61 546.398 364.405 545.877 364.262C545.356 364.112 544.826 364.037 544.285 364.037C543.908 364.037 543.585 364.099 543.318 364.223C543.051 364.34 542.85 364.509 542.713 364.73C542.576 364.945 542.508 365.196 542.508 365.482C542.508 365.821 542.605 366.107 542.801 366.342C543.003 366.57 543.302 366.791 543.699 367.006C544.103 367.221 544.604 367.471 545.203 367.758C545.932 368.103 546.554 368.464 547.068 368.842C547.589 369.213 547.99 369.652 548.27 370.16C548.549 370.661 548.689 371.286 548.689 372.035ZM555.516 364.857C556.98 364.857 558.104 365.176 558.885 365.814C559.666 366.452 560.057 367.423 560.057 368.725V376H557.977L557.4 374.516H557.322C557.01 374.906 556.691 375.225 556.365 375.473C556.04 375.72 555.665 375.902 555.242 376.02C554.819 376.137 554.305 376.195 553.699 376.195C553.055 376.195 552.475 376.072 551.961 375.824C551.453 375.577 551.053 375.199 550.76 374.691C550.467 374.177 550.32 373.526 550.32 372.738C550.32 371.579 550.727 370.727 551.541 370.18C552.355 369.626 553.576 369.32 555.203 369.262L557.098 369.203V368.725C557.098 368.152 556.948 367.732 556.648 367.465C556.349 367.198 555.932 367.064 555.398 367.064C554.871 367.064 554.354 367.139 553.846 367.289C553.338 367.439 552.83 367.628 552.322 367.855L551.336 365.844C551.915 365.538 552.563 365.297 553.279 365.121C554.002 364.945 554.747 364.857 555.516 364.857ZM557.098 370.941L555.945 370.98C554.982 371.007 554.311 371.179 553.934 371.498C553.562 371.817 553.377 372.237 553.377 372.758C553.377 373.214 553.51 373.539 553.777 373.734C554.044 373.923 554.393 374.018 554.822 374.018C555.46 374.018 555.997 373.829 556.434 373.451C556.876 373.074 557.098 372.536 557.098 371.84V370.941ZM575.955 364.877C577.192 364.877 578.126 365.196 578.758 365.834C579.396 366.465 579.715 367.481 579.715 368.881V376H576.727V369.623C576.727 368.842 576.593 368.253 576.326 367.855C576.059 367.458 575.646 367.26 575.086 367.26C574.298 367.26 573.738 367.543 573.406 368.109C573.074 368.669 572.908 369.473 572.908 370.521V376H569.93V369.623C569.93 369.102 569.871 368.666 569.754 368.314C569.637 367.963 569.458 367.699 569.217 367.523C568.976 367.348 568.667 367.26 568.289 367.26C567.736 367.26 567.299 367.4 566.98 367.68C566.668 367.953 566.443 368.36 566.307 368.9C566.176 369.434 566.111 370.089 566.111 370.863V376H563.133V365.082H565.408L565.809 366.479H565.975C566.196 366.101 566.473 365.795 566.805 365.561C567.143 365.326 567.514 365.154 567.918 365.043C568.322 364.932 568.732 364.877 569.148 364.877C569.949 364.877 570.626 365.007 571.18 365.268C571.74 365.528 572.169 365.932 572.469 366.479H572.732C573.058 365.919 573.517 365.512 574.109 365.258C574.708 365.004 575.324 364.877 575.955 364.877ZM588.855 364.877C590.086 364.877 591.079 365.355 591.834 366.312C592.596 367.27 592.977 368.673 592.977 370.521C592.977 371.758 592.798 372.8 592.439 373.646C592.081 374.486 591.587 375.121 590.955 375.551C590.324 375.98 589.598 376.195 588.777 376.195C588.25 376.195 587.798 376.13 587.42 376C587.042 375.863 586.72 375.691 586.453 375.482C586.186 375.268 585.955 375.04 585.76 374.799H585.604C585.656 375.059 585.695 375.326 585.721 375.6C585.747 375.873 585.76 376.14 585.76 376.4V380.805H582.781V365.082H585.203L585.623 366.498H585.76C585.955 366.205 586.193 365.935 586.473 365.688C586.753 365.44 587.088 365.245 587.479 365.102C587.876 364.952 588.335 364.877 588.855 364.877ZM587.898 367.26C587.378 367.26 586.964 367.367 586.658 367.582C586.352 367.797 586.128 368.119 585.984 368.549C585.848 368.979 585.773 369.522 585.76 370.18V370.502C585.76 371.205 585.825 371.801 585.955 372.289C586.092 372.777 586.316 373.148 586.629 373.402C586.948 373.656 587.384 373.783 587.938 373.783C588.393 373.783 588.768 373.656 589.061 373.402C589.354 373.148 589.572 372.777 589.715 372.289C589.865 371.794 589.939 371.192 589.939 370.482C589.939 369.415 589.773 368.611 589.441 368.07C589.109 367.53 588.595 367.26 587.898 367.26ZM598.416 376H595.438V360.805H598.416V376ZM606.053 364.877C607.062 364.877 607.931 365.072 608.66 365.463C609.389 365.847 609.952 366.407 610.35 367.143C610.747 367.878 610.945 368.777 610.945 369.838V371.283H603.904C603.937 372.123 604.188 372.784 604.656 373.266C605.132 373.741 605.789 373.979 606.629 373.979C607.326 373.979 607.964 373.907 608.543 373.764C609.122 373.62 609.718 373.406 610.33 373.119V375.424C609.79 375.691 609.223 375.886 608.631 376.01C608.045 376.133 607.332 376.195 606.492 376.195C605.398 376.195 604.428 375.993 603.582 375.59C602.742 375.186 602.081 374.571 601.6 373.744C601.124 372.917 600.887 371.876 600.887 370.619C600.887 369.343 601.102 368.282 601.531 367.436C601.967 366.583 602.573 365.945 603.348 365.521C604.122 365.092 605.024 364.877 606.053 364.877ZM606.072 366.996C605.493 366.996 605.011 367.182 604.627 367.553C604.249 367.924 604.031 368.507 603.973 369.301H608.152C608.146 368.858 608.064 368.464 607.908 368.119C607.758 367.774 607.531 367.501 607.225 367.299C606.925 367.097 606.541 366.996 606.072 366.996ZM620.984 372.758C620.984 373.5 620.809 374.128 620.457 374.643C620.112 375.15 619.594 375.538 618.904 375.805C618.214 376.065 617.355 376.195 616.326 376.195C615.564 376.195 614.91 376.146 614.363 376.049C613.823 375.951 613.276 375.788 612.723 375.561V373.1C613.315 373.367 613.95 373.588 614.627 373.764C615.311 373.933 615.91 374.018 616.424 374.018C617.003 374.018 617.417 373.933 617.664 373.764C617.918 373.588 618.045 373.36 618.045 373.08C618.045 372.898 617.993 372.735 617.889 372.592C617.791 372.442 617.576 372.276 617.244 372.094C616.912 371.905 616.391 371.661 615.682 371.361C614.998 371.075 614.435 370.785 613.992 370.492C613.556 370.199 613.23 369.854 613.016 369.457C612.807 369.053 612.703 368.542 612.703 367.924C612.703 366.915 613.094 366.156 613.875 365.648C614.663 365.134 615.714 364.877 617.029 364.877C617.706 364.877 618.351 364.945 618.963 365.082C619.581 365.219 620.216 365.437 620.867 365.736L619.969 367.885C619.428 367.65 618.917 367.458 618.436 367.309C617.96 367.159 617.475 367.084 616.98 367.084C616.544 367.084 616.215 367.143 615.994 367.26C615.773 367.377 615.662 367.556 615.662 367.797C615.662 367.973 615.717 368.129 615.828 368.266C615.945 368.402 616.167 368.555 616.492 368.725C616.824 368.887 617.309 369.099 617.947 369.359C618.566 369.613 619.103 369.88 619.559 370.16C620.014 370.434 620.366 370.775 620.613 371.186C620.861 371.589 620.984 372.113 620.984 372.758ZM622.889 374.604C622.889 373.992 623.055 373.562 623.387 373.314C623.725 373.067 624.132 372.943 624.607 372.943C625.07 372.943 625.467 373.067 625.799 373.314C626.137 373.562 626.307 373.992 626.307 374.604C626.307 375.189 626.137 375.613 625.799 375.873C625.467 376.133 625.07 376.264 624.607 376.264C624.132 376.264 623.725 376.133 623.387 375.873C623.055 375.613 622.889 375.189 622.889 374.604ZM632.205 380.805C630.682 380.805 629.516 380.538 628.709 380.004C627.908 379.477 627.508 378.734 627.508 377.777C627.508 377.12 627.713 376.57 628.123 376.127C628.533 375.684 629.135 375.368 629.93 375.18C629.624 375.049 629.357 374.838 629.129 374.545C628.901 374.245 628.787 373.93 628.787 373.598C628.787 373.181 628.908 372.836 629.148 372.562C629.389 372.283 629.738 372.009 630.193 371.742C629.62 371.495 629.165 371.098 628.826 370.551C628.494 370.004 628.328 369.359 628.328 368.617C628.328 367.823 628.501 367.149 628.846 366.596C629.197 366.036 629.705 365.609 630.369 365.316C631.04 365.023 631.854 364.877 632.811 364.877C633.012 364.877 633.247 364.89 633.514 364.916C633.781 364.942 634.025 364.971 634.246 365.004C634.474 365.036 634.627 365.062 634.705 365.082H638.514V366.596L636.805 367.035C636.961 367.276 637.078 367.533 637.156 367.807C637.234 368.08 637.273 368.37 637.273 368.676C637.273 369.848 636.863 370.762 636.043 371.42C635.229 372.071 634.096 372.396 632.645 372.396C632.299 372.377 631.974 372.351 631.668 372.318C631.518 372.436 631.404 372.559 631.326 372.689C631.248 372.82 631.209 372.956 631.209 373.1C631.209 373.243 631.268 373.363 631.385 373.461C631.508 373.552 631.691 373.624 631.932 373.676C632.179 373.721 632.485 373.744 632.85 373.744H634.705C635.903 373.744 636.814 374.001 637.439 374.516C638.071 375.03 638.387 375.785 638.387 376.781C638.387 378.057 637.853 379.047 636.785 379.75C635.724 380.453 634.197 380.805 632.205 380.805ZM632.332 378.861C633.042 378.861 633.65 378.793 634.158 378.656C634.673 378.526 635.066 378.337 635.34 378.09C635.613 377.849 635.75 377.559 635.75 377.221C635.75 376.947 635.669 376.729 635.506 376.566C635.35 376.41 635.109 376.299 634.783 376.234C634.464 376.169 634.054 376.137 633.553 376.137H632.01C631.645 376.137 631.316 376.195 631.023 376.312C630.737 376.43 630.509 376.592 630.34 376.801C630.171 377.016 630.086 377.263 630.086 377.543C630.086 377.953 630.281 378.275 630.672 378.51C631.069 378.744 631.622 378.861 632.332 378.861ZM632.811 370.58C633.37 370.58 633.781 370.408 634.041 370.062C634.301 369.717 634.432 369.249 634.432 368.656C634.432 367.999 634.295 367.507 634.021 367.182C633.755 366.85 633.351 366.684 632.811 366.684C632.264 366.684 631.854 366.85 631.58 367.182C631.307 367.507 631.17 367.999 631.17 368.656C631.17 369.249 631.303 369.717 631.57 370.062C631.844 370.408 632.257 370.58 632.811 370.58ZM643.299 365.082V376H640.32V365.082H643.299ZM641.814 360.805C642.257 360.805 642.638 360.909 642.957 361.117C643.276 361.319 643.436 361.7 643.436 362.26C643.436 362.813 643.276 363.197 642.957 363.412C642.638 363.62 642.257 363.725 641.814 363.725C641.365 363.725 640.981 363.62 640.662 363.412C640.35 363.197 640.193 362.813 640.193 362.26C640.193 361.7 640.35 361.319 640.662 361.117C640.981 360.909 641.365 360.805 641.814 360.805ZM651.033 373.822C651.359 373.822 651.674 373.79 651.98 373.725C652.293 373.66 652.602 373.578 652.908 373.48V375.697C652.589 375.84 652.192 375.958 651.717 376.049C651.248 376.146 650.734 376.195 650.174 376.195C649.523 376.195 648.937 376.091 648.416 375.883C647.902 375.668 647.495 375.3 647.195 374.779C646.902 374.252 646.756 373.52 646.756 372.582V367.318H645.33V366.059L646.971 365.062L647.83 362.758H649.734V365.082H652.791V367.318H649.734V372.582C649.734 372.999 649.852 373.311 650.086 373.52C650.327 373.721 650.643 373.822 651.033 373.822Z" fill="black"/>
<path d="M477 444.082H480.262L482.322 450.225C482.387 450.42 482.443 450.618 482.488 450.82C482.534 451.022 482.573 451.23 482.605 451.445C482.638 451.66 482.664 451.885 482.684 452.119H482.742C482.781 451.768 482.833 451.439 482.898 451.133C482.97 450.827 483.058 450.524 483.162 450.225L485.184 444.082H488.377L483.758 456.396C483.478 457.152 483.113 457.78 482.664 458.281C482.215 458.789 481.697 459.17 481.111 459.424C480.532 459.678 479.894 459.805 479.197 459.805C478.859 459.805 478.566 459.785 478.318 459.746C478.071 459.714 477.859 459.678 477.684 459.639V457.275C477.82 457.308 477.993 457.337 478.201 457.363C478.41 457.389 478.628 457.402 478.855 457.402C479.272 457.402 479.63 457.314 479.93 457.139C480.229 456.963 480.48 456.725 480.682 456.426C480.883 456.133 481.043 455.811 481.16 455.459L481.336 454.922L477 444.082ZM494.422 443.857C495.887 443.857 497.01 444.176 497.791 444.814C498.572 445.452 498.963 446.423 498.963 447.725V455H496.883L496.307 453.516H496.229C495.916 453.906 495.597 454.225 495.271 454.473C494.946 454.72 494.572 454.902 494.148 455.02C493.725 455.137 493.211 455.195 492.605 455.195C491.961 455.195 491.382 455.072 490.867 454.824C490.359 454.577 489.959 454.199 489.666 453.691C489.373 453.177 489.227 452.526 489.227 451.738C489.227 450.579 489.633 449.727 490.447 449.18C491.261 448.626 492.482 448.32 494.109 448.262L496.004 448.203V447.725C496.004 447.152 495.854 446.732 495.555 446.465C495.255 446.198 494.839 446.064 494.305 446.064C493.777 446.064 493.26 446.139 492.752 446.289C492.244 446.439 491.736 446.628 491.229 446.855L490.242 444.844C490.822 444.538 491.469 444.297 492.186 444.121C492.908 443.945 493.654 443.857 494.422 443.857ZM496.004 449.941L494.852 449.98C493.888 450.007 493.217 450.179 492.84 450.498C492.469 450.817 492.283 451.237 492.283 451.758C492.283 452.214 492.417 452.539 492.684 452.734C492.951 452.923 493.299 453.018 493.729 453.018C494.367 453.018 494.904 452.829 495.34 452.451C495.783 452.074 496.004 451.536 496.004 450.84V449.941ZM505.018 455H502.039V439.805H505.018V455ZM511.609 455.195C510.392 455.195 509.399 454.72 508.631 453.77C507.869 452.812 507.488 451.41 507.488 449.561C507.488 447.692 507.876 446.279 508.65 445.322C509.425 444.359 510.438 443.877 511.688 443.877C512.208 443.877 512.667 443.949 513.064 444.092C513.462 444.235 513.803 444.427 514.09 444.668C514.383 444.909 514.63 445.179 514.832 445.479H514.93C514.891 445.27 514.842 444.964 514.783 444.561C514.731 444.15 514.705 443.73 514.705 443.301V439.805H517.693V455H515.408L514.832 453.584H514.705C514.516 453.883 514.279 454.157 513.992 454.404C513.712 454.645 513.377 454.837 512.986 454.98C512.596 455.124 512.137 455.195 511.609 455.195ZM512.654 452.822C513.468 452.822 514.041 452.581 514.373 452.1C514.712 451.611 514.891 450.879 514.91 449.902V449.58C514.91 448.519 514.747 447.708 514.422 447.148C514.096 446.582 513.491 446.299 512.605 446.299C511.948 446.299 511.434 446.582 511.062 447.148C510.691 447.715 510.506 448.532 510.506 449.6C510.506 450.667 510.691 451.471 511.062 452.012C511.44 452.552 511.971 452.822 512.654 452.822ZM525.281 443.857C526.746 443.857 527.869 444.176 528.65 444.814C529.432 445.452 529.822 446.423 529.822 447.725V455H527.742L527.166 453.516H527.088C526.775 453.906 526.456 454.225 526.131 454.473C525.805 454.72 525.431 454.902 525.008 455.02C524.585 455.137 524.07 455.195 523.465 455.195C522.82 455.195 522.241 455.072 521.727 454.824C521.219 454.577 520.818 454.199 520.525 453.691C520.232 453.177 520.086 452.526 520.086 451.738C520.086 450.579 520.493 449.727 521.307 449.18C522.12 448.626 523.341 448.32 524.969 448.262L526.863 448.203V447.725C526.863 447.152 526.714 446.732 526.414 446.465C526.115 446.198 525.698 446.064 525.164 446.064C524.637 446.064 524.119 446.139 523.611 446.289C523.104 446.439 522.596 446.628 522.088 446.855L521.102 444.844C521.681 444.538 522.329 444.297 523.045 444.121C523.768 443.945 524.513 443.857 525.281 443.857ZM526.863 449.941L525.711 449.98C524.747 450.007 524.077 450.179 523.699 450.498C523.328 450.817 523.143 451.237 523.143 451.758C523.143 452.214 523.276 452.539 523.543 452.734C523.81 452.923 524.158 453.018 524.588 453.018C525.226 453.018 525.763 452.829 526.199 452.451C526.642 452.074 526.863 451.536 526.863 450.84V449.941ZM532.479 453.604C532.479 452.992 532.645 452.562 532.977 452.314C533.315 452.067 533.722 451.943 534.197 451.943C534.66 451.943 535.057 452.067 535.389 452.314C535.727 452.562 535.896 452.992 535.896 453.604C535.896 454.189 535.727 454.613 535.389 454.873C535.057 455.133 534.66 455.264 534.197 455.264C533.722 455.264 533.315 455.133 532.977 454.873C532.645 454.613 532.479 454.189 532.479 453.604ZM541.795 459.805C540.271 459.805 539.106 459.538 538.299 459.004C537.498 458.477 537.098 457.734 537.098 456.777C537.098 456.12 537.303 455.57 537.713 455.127C538.123 454.684 538.725 454.368 539.52 454.18C539.214 454.049 538.947 453.838 538.719 453.545C538.491 453.245 538.377 452.93 538.377 452.598C538.377 452.181 538.497 451.836 538.738 451.562C538.979 451.283 539.327 451.009 539.783 450.742C539.21 450.495 538.755 450.098 538.416 449.551C538.084 449.004 537.918 448.359 537.918 447.617C537.918 446.823 538.09 446.149 538.436 445.596C538.787 445.036 539.295 444.609 539.959 444.316C540.63 444.023 541.443 443.877 542.4 443.877C542.602 443.877 542.837 443.89 543.104 443.916C543.37 443.942 543.615 443.971 543.836 444.004C544.064 444.036 544.217 444.062 544.295 444.082H548.104V445.596L546.395 446.035C546.551 446.276 546.668 446.533 546.746 446.807C546.824 447.08 546.863 447.37 546.863 447.676C546.863 448.848 546.453 449.762 545.633 450.42C544.819 451.071 543.686 451.396 542.234 451.396C541.889 451.377 541.564 451.351 541.258 451.318C541.108 451.436 540.994 451.559 540.916 451.689C540.838 451.82 540.799 451.956 540.799 452.1C540.799 452.243 540.857 452.363 540.975 452.461C541.098 452.552 541.281 452.624 541.521 452.676C541.769 452.721 542.075 452.744 542.439 452.744H544.295C545.493 452.744 546.404 453.001 547.029 453.516C547.661 454.03 547.977 454.785 547.977 455.781C547.977 457.057 547.443 458.047 546.375 458.75C545.314 459.453 543.787 459.805 541.795 459.805ZM541.922 457.861C542.632 457.861 543.24 457.793 543.748 457.656C544.262 457.526 544.656 457.337 544.93 457.09C545.203 456.849 545.34 456.559 545.34 456.221C545.34 455.947 545.258 455.729 545.096 455.566C544.939 455.41 544.699 455.299 544.373 455.234C544.054 455.169 543.644 455.137 543.143 455.137H541.6C541.235 455.137 540.906 455.195 540.613 455.312C540.327 455.43 540.099 455.592 539.93 455.801C539.76 456.016 539.676 456.263 539.676 456.543C539.676 456.953 539.871 457.275 540.262 457.51C540.659 457.744 541.212 457.861 541.922 457.861ZM542.4 449.58C542.96 449.58 543.37 449.408 543.631 449.062C543.891 448.717 544.021 448.249 544.021 447.656C544.021 446.999 543.885 446.507 543.611 446.182C543.344 445.85 542.941 445.684 542.4 445.684C541.854 445.684 541.443 445.85 541.17 446.182C540.896 446.507 540.76 446.999 540.76 447.656C540.76 448.249 540.893 448.717 541.16 449.062C541.434 449.408 541.847 449.58 542.4 449.58ZM552.889 439.805V442.9C552.889 443.441 552.869 443.955 552.83 444.443C552.798 444.932 552.771 445.277 552.752 445.479H552.908C553.143 445.101 553.419 444.795 553.738 444.561C554.064 444.326 554.422 444.154 554.812 444.043C555.203 443.932 555.623 443.877 556.072 443.877C556.86 443.877 557.547 444.017 558.133 444.297C558.719 444.57 559.174 445.003 559.5 445.596C559.826 446.182 559.988 446.943 559.988 447.881V455H557.01V448.623C557.01 447.842 556.867 447.253 556.58 446.855C556.294 446.458 555.851 446.26 555.252 446.26C554.653 446.26 554.181 446.4 553.836 446.68C553.491 446.953 553.247 447.36 553.104 447.9C552.96 448.434 552.889 449.089 552.889 449.863V455H549.91V439.805H552.889ZM567.527 443.857C568.992 443.857 570.115 444.176 570.896 444.814C571.678 445.452 572.068 446.423 572.068 447.725V455H569.988L569.412 453.516H569.334C569.021 453.906 568.702 454.225 568.377 454.473C568.051 454.72 567.677 454.902 567.254 455.02C566.831 455.137 566.316 455.195 565.711 455.195C565.066 455.195 564.487 455.072 563.973 454.824C563.465 454.577 563.064 454.199 562.771 453.691C562.479 453.177 562.332 452.526 562.332 451.738C562.332 450.579 562.739 449.727 563.553 449.18C564.367 448.626 565.587 448.32 567.215 448.262L569.109 448.203V447.725C569.109 447.152 568.96 446.732 568.66 446.465C568.361 446.198 567.944 446.064 567.41 446.064C566.883 446.064 566.365 446.139 565.857 446.289C565.35 446.439 564.842 446.628 564.334 446.855L563.348 444.844C563.927 444.538 564.575 444.297 565.291 444.121C566.014 443.945 566.759 443.857 567.527 443.857ZM569.109 449.941L567.957 449.98C566.993 450.007 566.323 450.179 565.945 450.498C565.574 450.817 565.389 451.237 565.389 451.758C565.389 452.214 565.522 452.539 565.789 452.734C566.056 452.923 566.404 453.018 566.834 453.018C567.472 453.018 568.009 452.829 568.445 452.451C568.888 452.074 569.109 451.536 569.109 450.84V449.941ZM579.646 443.877C580.656 443.877 581.525 444.072 582.254 444.463C582.983 444.847 583.546 445.407 583.943 446.143C584.34 446.878 584.539 447.777 584.539 448.838V450.283H577.498C577.531 451.123 577.781 451.784 578.25 452.266C578.725 452.741 579.383 452.979 580.223 452.979C580.919 452.979 581.557 452.907 582.137 452.764C582.716 452.62 583.312 452.406 583.924 452.119V454.424C583.383 454.691 582.817 454.886 582.225 455.01C581.639 455.133 580.926 455.195 580.086 455.195C578.992 455.195 578.022 454.993 577.176 454.59C576.336 454.186 575.675 453.571 575.193 452.744C574.718 451.917 574.48 450.876 574.48 449.619C574.48 448.343 574.695 447.282 575.125 446.436C575.561 445.583 576.167 444.945 576.941 444.521C577.716 444.092 578.618 443.877 579.646 443.877ZM579.666 445.996C579.087 445.996 578.605 446.182 578.221 446.553C577.843 446.924 577.625 447.507 577.566 448.301H581.746C581.74 447.858 581.658 447.464 581.502 447.119C581.352 446.774 581.124 446.501 580.818 446.299C580.519 446.097 580.135 445.996 579.666 445.996ZM599.783 443.877C601.02 443.877 601.954 444.196 602.586 444.834C603.224 445.465 603.543 446.481 603.543 447.881V455H600.555V448.623C600.555 447.842 600.421 447.253 600.154 446.855C599.887 446.458 599.474 446.26 598.914 446.26C598.126 446.26 597.566 446.543 597.234 447.109C596.902 447.669 596.736 448.473 596.736 449.521V455H593.758V448.623C593.758 448.102 593.699 447.666 593.582 447.314C593.465 446.963 593.286 446.699 593.045 446.523C592.804 446.348 592.495 446.26 592.117 446.26C591.564 446.26 591.128 446.4 590.809 446.68C590.496 446.953 590.271 447.36 590.135 447.9C590.005 448.434 589.939 449.089 589.939 449.863V455H586.961V444.082H589.236L589.637 445.479H589.803C590.024 445.101 590.301 444.795 590.633 444.561C590.971 444.326 591.342 444.154 591.746 444.043C592.15 443.932 592.56 443.877 592.977 443.877C593.777 443.877 594.454 444.007 595.008 444.268C595.568 444.528 595.997 444.932 596.297 445.479H596.561C596.886 444.919 597.345 444.512 597.938 444.258C598.536 444.004 599.152 443.877 599.783 443.877ZM609.588 444.082V455H606.609V444.082H609.588ZM608.104 439.805C608.546 439.805 608.927 439.909 609.246 440.117C609.565 440.319 609.725 440.7 609.725 441.26C609.725 441.813 609.565 442.197 609.246 442.412C608.927 442.62 608.546 442.725 608.104 442.725C607.654 442.725 607.27 442.62 606.951 442.412C606.639 442.197 606.482 441.813 606.482 441.26C606.482 440.7 606.639 440.319 606.951 440.117C607.27 439.909 607.654 439.805 608.104 439.805ZM612.303 453.604C612.303 452.992 612.469 452.562 612.801 452.314C613.139 452.067 613.546 451.943 614.021 451.943C614.484 451.943 614.881 452.067 615.213 452.314C615.551 452.562 615.721 452.992 615.721 453.604C615.721 454.189 615.551 454.613 615.213 454.873C614.881 455.133 614.484 455.264 614.021 455.264C613.546 455.264 613.139 455.133 612.801 454.873C612.469 454.613 612.303 454.189 612.303 453.604ZM626.023 455H617.4V453.242L622.459 446.357H617.703V444.082H625.848V446.016L620.926 452.725H626.023V455ZM632.664 443.857C634.129 443.857 635.252 444.176 636.033 444.814C636.814 445.452 637.205 446.423 637.205 447.725V455H635.125L634.549 453.516H634.471C634.158 453.906 633.839 454.225 633.514 454.473C633.188 454.72 632.814 454.902 632.391 455.02C631.967 455.137 631.453 455.195 630.848 455.195C630.203 455.195 629.624 455.072 629.109 454.824C628.602 454.577 628.201 454.199 627.908 453.691C627.615 453.177 627.469 452.526 627.469 451.738C627.469 450.579 627.876 449.727 628.689 449.18C629.503 448.626 630.724 448.32 632.352 448.262L634.246 448.203V447.725C634.246 447.152 634.096 446.732 633.797 446.465C633.497 446.198 633.081 446.064 632.547 446.064C632.02 446.064 631.502 446.139 630.994 446.289C630.486 446.439 629.979 446.628 629.471 446.855L628.484 444.844C629.064 444.538 629.712 444.297 630.428 444.121C631.15 443.945 631.896 443.857 632.664 443.857ZM634.246 449.941L633.094 449.98C632.13 450.007 631.46 450.179 631.082 450.498C630.711 450.817 630.525 451.237 630.525 451.758C630.525 452.214 630.659 452.539 630.926 452.734C631.193 452.923 631.541 453.018 631.971 453.018C632.609 453.018 633.146 452.829 633.582 452.451C634.025 452.074 634.246 451.536 634.246 450.84V449.941ZM643.738 455.195C642.521 455.195 641.528 454.72 640.76 453.77C639.998 452.812 639.617 451.41 639.617 449.561C639.617 447.692 640.005 446.279 640.779 445.322C641.554 444.359 642.566 443.877 643.816 443.877C644.337 443.877 644.796 443.949 645.193 444.092C645.59 444.235 645.932 444.427 646.219 444.668C646.512 444.909 646.759 445.179 646.961 445.479H647.059C647.02 445.27 646.971 444.964 646.912 444.561C646.86 444.15 646.834 443.73 646.834 443.301V439.805H649.822V455H647.537L646.961 453.584H646.834C646.645 453.883 646.408 454.157 646.121 454.404C645.841 454.645 645.506 454.837 645.115 454.98C644.725 455.124 644.266 455.195 643.738 455.195ZM644.783 452.822C645.597 452.822 646.17 452.581 646.502 452.1C646.84 451.611 647.02 450.879 647.039 449.902V449.58C647.039 448.519 646.876 447.708 646.551 447.148C646.225 446.582 645.62 446.299 644.734 446.299C644.077 446.299 643.562 446.582 643.191 447.148C642.82 447.715 642.635 448.532 642.635 449.6C642.635 450.667 642.82 451.471 643.191 452.012C643.569 452.552 644.1 452.822 644.783 452.822ZM657.439 443.877C658.449 443.877 659.318 444.072 660.047 444.463C660.776 444.847 661.339 445.407 661.736 446.143C662.133 446.878 662.332 447.777 662.332 448.838V450.283H655.291C655.324 451.123 655.574 451.784 656.043 452.266C656.518 452.741 657.176 452.979 658.016 452.979C658.712 452.979 659.35 452.907 659.93 452.764C660.509 452.62 661.105 452.406 661.717 452.119V454.424C661.176 454.691 660.61 454.886 660.018 455.01C659.432 455.133 658.719 455.195 657.879 455.195C656.785 455.195 655.815 454.993 654.969 454.59C654.129 454.186 653.468 453.571 652.986 452.744C652.511 451.917 652.273 450.876 652.273 449.619C652.273 448.343 652.488 447.282 652.918 446.436C653.354 445.583 653.96 444.945 654.734 444.521C655.509 444.092 656.411 443.877 657.439 443.877ZM657.459 445.996C656.88 445.996 656.398 446.182 656.014 446.553C655.636 446.924 655.418 447.507 655.359 448.301H659.539C659.533 447.858 659.451 447.464 659.295 447.119C659.145 446.774 658.917 446.501 658.611 446.299C658.312 446.097 657.928 445.996 657.459 445.996ZM667.732 439.805V442.9C667.732 443.441 667.713 443.955 667.674 444.443C667.641 444.932 667.615 445.277 667.596 445.479H667.752C667.986 445.101 668.263 444.795 668.582 444.561C668.908 444.326 669.266 444.154 669.656 444.043C670.047 443.932 670.467 443.877 670.916 443.877C671.704 443.877 672.391 444.017 672.977 444.297C673.562 444.57 674.018 445.003 674.344 445.596C674.669 446.182 674.832 446.943 674.832 447.881V455H671.854V448.623C671.854 447.842 671.71 447.253 671.424 446.855C671.137 446.458 670.695 446.26 670.096 446.26C669.497 446.26 669.025 446.4 668.68 446.68C668.335 446.953 668.09 447.36 667.947 447.9C667.804 448.434 667.732 449.089 667.732 449.863V455H664.754V439.805H667.732ZM493.943 474.842C493.943 475.46 493.868 476.072 493.719 476.678C493.576 477.277 493.354 477.82 493.055 478.309C492.755 478.79 492.378 479.178 491.922 479.471C491.473 479.757 490.939 479.9 490.32 479.9C489.832 479.9 489.399 479.783 489.021 479.549C488.65 479.314 488.39 479.012 488.24 478.641H488.084C487.811 478.973 487.452 479.266 487.01 479.52C486.567 479.773 486.03 479.9 485.398 479.9C484.207 479.9 483.289 479.546 482.645 478.836C482 478.12 481.678 477.182 481.678 476.023C481.678 475.125 481.87 474.334 482.254 473.65C482.638 472.96 483.185 472.42 483.895 472.029C484.604 471.639 485.441 471.443 486.404 471.443C487.036 471.443 487.684 471.502 488.348 471.619C489.018 471.73 489.542 471.85 489.92 471.98L489.725 476.082C489.712 476.219 489.702 476.355 489.695 476.492C489.695 476.629 489.695 476.717 489.695 476.756C489.695 477.309 489.77 477.677 489.92 477.859C490.076 478.035 490.249 478.123 490.438 478.123C490.737 478.123 490.988 477.973 491.189 477.674C491.391 477.374 491.544 476.974 491.648 476.473C491.753 475.971 491.805 475.421 491.805 474.822C491.805 473.709 491.577 472.762 491.121 471.98C490.672 471.193 490.053 470.594 489.266 470.184C488.484 469.767 487.596 469.559 486.6 469.559C485.551 469.559 484.627 469.725 483.826 470.057C483.025 470.389 482.352 470.854 481.805 471.453C481.264 472.052 480.854 472.758 480.574 473.572C480.301 474.386 480.164 475.275 480.164 476.238C480.164 477.436 480.379 478.452 480.809 479.285C481.238 480.118 481.87 480.75 482.703 481.18C483.543 481.609 484.568 481.824 485.779 481.824C486.554 481.824 487.358 481.74 488.191 481.57C489.031 481.395 489.799 481.176 490.496 480.916V482.801C489.858 483.068 489.145 483.279 488.357 483.436C487.57 483.598 486.736 483.68 485.857 483.68C484.204 483.68 482.791 483.387 481.619 482.801C480.447 482.215 479.549 481.372 478.924 480.271C478.305 479.165 477.996 477.84 477.996 476.297C477.996 475.086 478.195 473.963 478.592 472.928C478.995 471.886 479.572 470.978 480.32 470.203C481.069 469.422 481.971 468.813 483.025 468.377C484.087 467.941 485.271 467.723 486.58 467.723C488.006 467.723 489.272 468.012 490.379 468.592C491.492 469.165 492.365 469.982 492.996 471.043C493.628 472.104 493.943 473.37 493.943 474.842ZM483.943 476.062C483.943 476.792 484.093 477.319 484.393 477.645C484.699 477.964 485.109 478.123 485.623 478.123C486.294 478.123 486.766 477.879 487.039 477.391C487.312 476.902 487.472 476.264 487.518 475.477L487.645 473.318C487.495 473.286 487.326 473.263 487.137 473.25C486.948 473.23 486.743 473.221 486.521 473.221C485.89 473.221 485.385 473.361 485.008 473.641C484.63 473.914 484.357 474.269 484.188 474.705C484.025 475.135 483.943 475.587 483.943 476.062ZM499.705 486.805C498.182 486.805 497.016 486.538 496.209 486.004C495.408 485.477 495.008 484.734 495.008 483.777C495.008 483.12 495.213 482.57 495.623 482.127C496.033 481.684 496.635 481.368 497.43 481.18C497.124 481.049 496.857 480.838 496.629 480.545C496.401 480.245 496.287 479.93 496.287 479.598C496.287 479.181 496.408 478.836 496.648 478.562C496.889 478.283 497.238 478.009 497.693 477.742C497.12 477.495 496.665 477.098 496.326 476.551C495.994 476.004 495.828 475.359 495.828 474.617C495.828 473.823 496.001 473.149 496.346 472.596C496.697 472.036 497.205 471.609 497.869 471.316C498.54 471.023 499.354 470.877 500.311 470.877C500.512 470.877 500.747 470.89 501.014 470.916C501.281 470.942 501.525 470.971 501.746 471.004C501.974 471.036 502.127 471.062 502.205 471.082H506.014V472.596L504.305 473.035C504.461 473.276 504.578 473.533 504.656 473.807C504.734 474.08 504.773 474.37 504.773 474.676C504.773 475.848 504.363 476.762 503.543 477.42C502.729 478.071 501.596 478.396 500.145 478.396C499.799 478.377 499.474 478.351 499.168 478.318C499.018 478.436 498.904 478.559 498.826 478.689C498.748 478.82 498.709 478.956 498.709 479.1C498.709 479.243 498.768 479.363 498.885 479.461C499.008 479.552 499.191 479.624 499.432 479.676C499.679 479.721 499.985 479.744 500.35 479.744H502.205C503.403 479.744 504.314 480.001 504.939 480.516C505.571 481.03 505.887 481.785 505.887 482.781C505.887 484.057 505.353 485.047 504.285 485.75C503.224 486.453 501.697 486.805 499.705 486.805ZM499.832 484.861C500.542 484.861 501.15 484.793 501.658 484.656C502.173 484.526 502.566 484.337 502.84 484.09C503.113 483.849 503.25 483.559 503.25 483.221C503.25 482.947 503.169 482.729 503.006 482.566C502.85 482.41 502.609 482.299 502.283 482.234C501.964 482.169 501.554 482.137 501.053 482.137H499.51C499.145 482.137 498.816 482.195 498.523 482.312C498.237 482.43 498.009 482.592 497.84 482.801C497.671 483.016 497.586 483.263 497.586 483.543C497.586 483.953 497.781 484.275 498.172 484.51C498.569 484.744 499.122 484.861 499.832 484.861ZM500.311 476.58C500.87 476.58 501.281 476.408 501.541 476.062C501.801 475.717 501.932 475.249 501.932 474.656C501.932 473.999 501.795 473.507 501.521 473.182C501.255 472.85 500.851 472.684 500.311 472.684C499.764 472.684 499.354 472.85 499.08 473.182C498.807 473.507 498.67 473.999 498.67 474.656C498.67 475.249 498.803 475.717 499.07 476.062C499.344 476.408 499.757 476.58 500.311 476.58ZM520.643 470.877C521.88 470.877 522.814 471.196 523.445 471.834C524.083 472.465 524.402 473.481 524.402 474.881V482H521.414V475.623C521.414 474.842 521.281 474.253 521.014 473.855C520.747 473.458 520.333 473.26 519.773 473.26C518.986 473.26 518.426 473.543 518.094 474.109C517.762 474.669 517.596 475.473 517.596 476.521V482H514.617V475.623C514.617 475.102 514.559 474.666 514.441 474.314C514.324 473.963 514.145 473.699 513.904 473.523C513.663 473.348 513.354 473.26 512.977 473.26C512.423 473.26 511.987 473.4 511.668 473.68C511.355 473.953 511.131 474.36 510.994 474.9C510.864 475.434 510.799 476.089 510.799 476.863V482H507.82V471.082H510.096L510.496 472.479H510.662C510.883 472.101 511.16 471.795 511.492 471.561C511.831 471.326 512.202 471.154 512.605 471.043C513.009 470.932 513.419 470.877 513.836 470.877C514.637 470.877 515.314 471.007 515.867 471.268C516.427 471.528 516.857 471.932 517.156 472.479H517.42C517.745 471.919 518.204 471.512 518.797 471.258C519.396 471.004 520.011 470.877 520.643 470.877ZM531.941 470.857C533.406 470.857 534.529 471.176 535.311 471.814C536.092 472.452 536.482 473.423 536.482 474.725V482H534.402L533.826 480.516H533.748C533.436 480.906 533.117 481.225 532.791 481.473C532.465 481.72 532.091 481.902 531.668 482.02C531.245 482.137 530.73 482.195 530.125 482.195C529.48 482.195 528.901 482.072 528.387 481.824C527.879 481.577 527.479 481.199 527.186 480.691C526.893 480.177 526.746 479.526 526.746 478.738C526.746 477.579 527.153 476.727 527.967 476.18C528.781 475.626 530.001 475.32 531.629 475.262L533.523 475.203V474.725C533.523 474.152 533.374 473.732 533.074 473.465C532.775 473.198 532.358 473.064 531.824 473.064C531.297 473.064 530.779 473.139 530.271 473.289C529.764 473.439 529.256 473.628 528.748 473.855L527.762 471.844C528.341 471.538 528.989 471.297 529.705 471.121C530.428 470.945 531.173 470.857 531.941 470.857ZM533.523 476.941L532.371 476.98C531.408 477.007 530.737 477.179 530.359 477.498C529.988 477.817 529.803 478.237 529.803 478.758C529.803 479.214 529.936 479.539 530.203 479.734C530.47 479.923 530.818 480.018 531.248 480.018C531.886 480.018 532.423 479.829 532.859 479.451C533.302 479.074 533.523 478.536 533.523 477.84V476.941ZM542.537 471.082V482H539.559V471.082H542.537ZM541.053 466.805C541.495 466.805 541.876 466.909 542.195 467.117C542.514 467.319 542.674 467.7 542.674 468.26C542.674 468.813 542.514 469.197 542.195 469.412C541.876 469.62 541.495 469.725 541.053 469.725C540.604 469.725 540.219 469.62 539.9 469.412C539.588 469.197 539.432 468.813 539.432 468.26C539.432 467.7 539.588 467.319 539.9 467.117C540.219 466.909 540.604 466.805 541.053 466.805ZM548.65 482H545.672V466.805H548.65V482ZM551.365 480.604C551.365 479.992 551.531 479.562 551.863 479.314C552.202 479.067 552.609 478.943 553.084 478.943C553.546 478.943 553.943 479.067 554.275 479.314C554.614 479.562 554.783 479.992 554.783 480.604C554.783 481.189 554.614 481.613 554.275 481.873C553.943 482.133 553.546 482.264 553.084 482.264C552.609 482.264 552.202 482.133 551.863 481.873C551.531 481.613 551.365 481.189 551.365 480.604ZM561.922 482.195C560.841 482.195 559.92 482 559.158 481.609C558.396 481.212 557.817 480.6 557.42 479.773C557.023 478.947 556.824 477.889 556.824 476.6C556.824 475.265 557.049 474.178 557.498 473.338C557.954 472.492 558.582 471.87 559.383 471.473C560.19 471.076 561.124 470.877 562.186 470.877C562.941 470.877 563.592 470.952 564.139 471.102C564.692 471.245 565.174 471.417 565.584 471.619L564.705 473.924C564.236 473.735 563.8 473.582 563.396 473.465C562.993 473.341 562.589 473.279 562.186 473.279C561.665 473.279 561.232 473.403 560.887 473.65C560.542 473.891 560.285 474.256 560.115 474.744C559.946 475.232 559.861 475.844 559.861 476.58C559.861 477.303 559.952 477.902 560.135 478.377C560.317 478.852 560.581 479.207 560.926 479.441C561.271 479.669 561.691 479.783 562.186 479.783C562.804 479.783 563.354 479.702 563.836 479.539C564.318 479.37 564.786 479.135 565.242 478.836V481.385C564.786 481.671 564.308 481.876 563.807 482C563.312 482.13 562.684 482.195 561.922 482.195ZM577.703 476.521C577.703 477.433 577.579 478.24 577.332 478.943C577.091 479.646 576.736 480.242 576.268 480.73C575.805 481.212 575.245 481.577 574.588 481.824C573.937 482.072 573.201 482.195 572.381 482.195C571.613 482.195 570.906 482.072 570.262 481.824C569.624 481.577 569.067 481.212 568.592 480.73C568.123 480.242 567.758 479.646 567.498 478.943C567.244 478.24 567.117 477.433 567.117 476.521C567.117 475.311 567.332 474.285 567.762 473.445C568.191 472.605 568.803 471.967 569.598 471.531C570.392 471.095 571.339 470.877 572.439 470.877C573.462 470.877 574.367 471.095 575.154 471.531C575.949 471.967 576.57 472.605 577.02 473.445C577.475 474.285 577.703 475.311 577.703 476.521ZM570.154 476.521C570.154 477.238 570.232 477.84 570.389 478.328C570.545 478.816 570.789 479.184 571.121 479.432C571.453 479.679 571.886 479.803 572.42 479.803C572.947 479.803 573.374 479.679 573.699 479.432C574.031 479.184 574.272 478.816 574.422 478.328C574.578 477.84 574.656 477.238 574.656 476.521C574.656 475.799 574.578 475.2 574.422 474.725C574.272 474.243 574.031 473.882 573.699 473.641C573.367 473.4 572.934 473.279 572.4 473.279C571.613 473.279 571.04 473.549 570.682 474.09C570.33 474.63 570.154 475.441 570.154 476.521ZM592.986 470.877C594.223 470.877 595.158 471.196 595.789 471.834C596.427 472.465 596.746 473.481 596.746 474.881V482H593.758V475.623C593.758 474.842 593.624 474.253 593.357 473.855C593.09 473.458 592.677 473.26 592.117 473.26C591.329 473.26 590.77 473.543 590.438 474.109C590.105 474.669 589.939 475.473 589.939 476.521V482H586.961V475.623C586.961 475.102 586.902 474.666 586.785 474.314C586.668 473.963 586.489 473.699 586.248 473.523C586.007 473.348 585.698 473.26 585.32 473.26C584.767 473.26 584.331 473.4 584.012 473.68C583.699 473.953 583.475 474.36 583.338 474.9C583.208 475.434 583.143 476.089 583.143 476.863V482H580.164V471.082H582.439L582.84 472.479H583.006C583.227 472.101 583.504 471.795 583.836 471.561C584.174 471.326 584.546 471.154 584.949 471.043C585.353 470.932 585.763 470.877 586.18 470.877C586.98 470.877 587.658 471.007 588.211 471.268C588.771 471.528 589.201 471.932 589.5 472.479H589.764C590.089 471.919 590.548 471.512 591.141 471.258C591.74 471.004 592.355 470.877 592.986 470.877Z" fill="black"/>
<path d="M440 486C436.542 486 433.292 485.344 430.25 484.031C427.208 482.719 424.562 480.938 422.312 478.688C420.062 476.438 418.281 473.792 416.969 470.75C415.656 467.708 415 464.458 415 461C415 457.542 415.656 454.292 416.969 451.25C418.281 448.208 420.062 445.562 422.312 443.312C424.562 441.062 427.208 439.281 430.25 437.969C433.292 436.656 436.542 436 440 436C443.458 436 446.708 436.656 449.75 437.969C452.792 439.281 455.438 441.062 457.688 443.312C459.938 445.562 461.719 448.208 463.031 451.25C464.344 454.292 465 457.542 465 461V464.312C465 466.646 464.18 468.615 462.541 470.219C460.902 471.823 458.888 472.625 456.5 472.625C454.997 472.625 453.579 472.26 452.248 471.531C450.916 470.802 449.896 469.771 449.188 468.438C448.104 469.854 446.748 470.906 445.12 471.594C443.491 472.281 441.785 472.625 440 472.625C436.766 472.625 434.01 471.5 431.731 469.25C429.452 467 428.312 464.25 428.312 460.999C428.312 457.749 429.452 454.978 431.731 452.687C434.01 450.396 436.766 449.25 440 449.25C443.233 449.25 445.99 450.396 448.269 452.687C450.548 454.978 451.688 457.749 451.688 461V464.312C451.688 465.588 452.156 466.667 453.094 467.551C454.031 468.434 455.156 468.875 456.469 468.875C457.781 468.875 458.906 468.434 459.844 467.551C460.781 466.667 461.25 465.588 461.25 464.312V461C461.25 455.068 459.191 450.043 455.074 445.926C450.957 441.809 445.932 439.75 440 439.75C434.068 439.75 429.043 441.809 424.926 445.926C420.809 450.043 418.75 455.068 418.75 461C418.75 466.932 420.809 471.957 424.926 476.074C429.043 480.191 434.068 482.25 440 482.25H453.375V486H440ZM440.004 468.875C442.21 468.875 444.083 468.109 445.625 466.578C447.167 465.047 447.938 463.188 447.938 461C447.938 458.75 447.165 456.854 445.621 455.312C444.077 453.771 442.202 453 439.996 453C437.79 453 435.917 453.771 434.375 455.312C432.833 456.854 432.062 458.75 432.062 461C432.062 463.188 432.835 465.047 434.379 466.578C435.923 468.109 437.798 468.875 440.004 468.875Z" fill="black"/>
<rect x="704" y="560.201" width="50" height="50" rx="10" transform="rotate(-62.1318 704 560.201)" fill="#D9D9D9" fill-opacity="0.5"/>
<defs>
<linearGradient id="paint0_linear_0_1" x1="0" y1="361.5" x2="1097" y2="361.5" gradientUnits="userSpaceOnUse">
<stop stop-color="#001FE6"/>
<stop offset="1" stop-color="#00EBD7"/>
</linearGradient>
</defs>
</svg>
